<svg width="500" height="500" viewBox="0 0 500 500" fill="none" xmlns="http://www.w3.org/2000/svg">
<path d="M118.597 358.201L47.5757 375.213L61.1745 431.987L132.196 414.976L118.597 358.201Z" fill="#EBEBEB"/>
<path d="M118.59 358.21L118.25 358.3L117.25 358.55L113.39 359.5L98.8701 363L47.6201 375.4L47.7601 375.17C51.8101 392.07 56.4601 411.44 61.3801 431.94L61.1201 431.78L132.12 414.78L132 415C127.94 397.89 124.58 383.71 122.22 373.8C121.06 368.8 120.14 364.94 119.51 362.28C119.2 360.95 118.97 359.94 118.8 359.28L118.57 358.22C118.57 358.22 118.66 358.55 118.83 359.22C119 359.89 119.25 360.91 119.57 362.22C120.22 364.87 121.16 368.74 122.36 373.68C124.77 383.61 128.2 397.81 132.36 414.94V415.12H132.19L61.1901 432.12L60.9901 432.17L61.0001 432L47.3901 375.26V375.08L47.5801 375.03L99.0001 362.82L113.51 359.39L117.34 358.5L118.34 358.27L118.59 358.21Z" fill="#263238"/>
<path d="M116.918 362.388L50.8857 378.204L62.7725 427.831L128.805 412.014L116.918 362.388Z" fill="#6D7BD3"/>
<g opacity="0.3">
<path d="M62.7603 427.83L78.4403 391.46L97.3503 407.34L104.56 394.7L128.79 412.02L62.7603 427.83Z" fill="black"/>
</g>
<g opacity="0.3">
<path d="M97.8799 382.81C98.1282 383.839 98.0655 384.919 97.6997 385.913C97.334 386.906 96.6816 387.769 95.8252 388.392C94.9688 389.014 93.947 389.369 92.889 389.41C91.831 389.452 90.7845 389.179 89.8819 388.625C88.9794 388.071 88.2613 387.262 87.8188 386.301C87.3763 385.339 87.2291 384.267 87.3959 383.222C87.5628 382.176 88.0361 381.203 88.756 380.427C89.4758 379.651 90.4099 379.105 91.4399 378.86C92.1222 378.696 92.83 378.668 93.5229 378.778C94.2159 378.888 94.8804 379.134 95.4785 379.5C96.0765 379.867 96.5965 380.348 97.0085 380.916C97.4206 381.484 97.7167 382.128 97.8799 382.81Z" fill="black"/>
</g>
<path d="M347.83 367.91H440.69C442.117 367.91 443.485 368.477 444.494 369.486C445.503 370.495 446.07 371.863 446.07 373.29V440C446.07 441.207 445.59 442.364 444.737 443.217C443.884 444.071 442.726 444.55 441.52 444.55H347C345.793 444.55 344.636 444.071 343.782 443.217C342.929 442.364 342.45 441.207 342.45 440V373.28C342.452 371.855 343.02 370.489 344.029 369.482C345.038 368.475 346.405 367.91 347.83 367.91Z" fill="white"/>
<path d="M347.83 367.91H440.69C442.117 367.91 443.485 368.477 444.494 369.486C445.503 370.495 446.07 371.863 446.07 373.29V384.72H342.45V373.28C342.452 371.855 343.02 370.489 344.029 369.482C345.038 368.475 346.405 367.91 347.83 367.91Z" fill="#E0E0E0"/>
<path d="M356.24 377.19C356.242 377.798 356.064 378.392 355.728 378.898C355.391 379.404 354.913 379.8 354.352 380.033C353.791 380.267 353.174 380.33 352.577 380.212C351.981 380.095 351.433 379.803 351.003 379.374C350.572 378.945 350.279 378.398 350.16 377.803C350.041 377.207 350.101 376.589 350.333 376.027C350.565 375.466 350.958 374.986 351.463 374.648C351.969 374.31 352.562 374.13 353.17 374.13C353.573 374.129 353.972 374.207 354.344 374.36C354.717 374.513 355.055 374.738 355.34 375.023C355.626 375.307 355.852 375.645 356.006 376.017C356.161 376.389 356.24 376.787 356.24 377.19Z" fill="white"/>
<path d="M365.65 377.19C365.652 377.798 365.473 378.393 365.137 378.899C364.8 379.406 364.321 379.801 363.759 380.034C363.198 380.268 362.58 380.33 361.983 380.211C361.387 380.093 360.839 379.801 360.409 379.371C359.979 378.941 359.686 378.393 359.568 377.796C359.45 377.2 359.512 376.582 359.745 376.021C359.979 375.459 360.374 374.98 360.88 374.643C361.387 374.307 361.982 374.128 362.59 374.13C363.401 374.13 364.18 374.452 364.754 375.026C365.327 375.6 365.65 376.378 365.65 377.19Z" fill="white"/>
<path d="M375.07 377.19C375.072 377.798 374.893 378.392 374.557 378.898C374.221 379.404 373.742 379.8 373.181 380.033C372.621 380.267 372.003 380.33 371.407 380.212C370.811 380.095 370.263 379.803 369.832 379.374C369.402 378.945 369.109 378.398 368.989 377.803C368.87 377.207 368.93 376.589 369.162 376.027C369.394 375.466 369.788 374.986 370.293 374.648C370.798 374.31 371.392 374.13 372 374.13C372.812 374.13 373.592 374.452 374.167 375.026C374.742 375.599 375.067 376.378 375.07 377.19Z" fill="white"/>
<path d="M441.52 444.6C441.52 444.6 441.83 444.6 442.41 444.48C443.277 444.29 444.071 443.857 444.7 443.23C445.202 442.703 445.578 442.07 445.802 441.377C446.025 440.685 446.089 439.951 445.99 439.23C445.99 437.52 445.99 435.54 445.99 433.31C445.99 424.39 445.94 411.5 445.91 395.58C445.91 391.58 445.91 387.413 445.91 383.08C445.91 380.91 445.91 378.69 445.91 376.43C445.91 375.31 445.91 374.15 445.91 373.02C445.861 371.897 445.451 370.82 444.74 369.95C444.004 369.076 443.003 368.466 441.89 368.21C441.321 368.095 440.74 368.051 440.16 368.08H349.29C348.546 368.054 347.801 368.074 347.06 368.14C346.344 368.246 345.66 368.505 345.053 368.898C344.445 369.291 343.93 369.81 343.54 370.42C343.149 371.026 342.89 371.707 342.78 372.42C342.716 373.158 342.692 373.899 342.71 374.64V401.06C342.71 412.52 342.71 423.58 342.71 434.11V439.98C342.708 440.592 342.841 441.196 343.1 441.75C343.351 442.302 343.715 442.795 344.168 443.198C344.621 443.601 345.153 443.905 345.73 444.09C346.314 444.258 346.923 444.326 347.53 444.29H363.9H389.96L427.68 444.37L437.94 444.42L427.68 444.47L389.96 444.55H363.9H347.51C346.855 444.59 346.199 444.515 345.57 444.33C344.929 444.126 344.339 443.79 343.836 443.344C343.333 442.898 342.929 442.351 342.65 441.74C342.362 441.113 342.215 440.43 342.22 439.74V437.79C342.22 436.49 342.22 435.18 342.22 433.87C342.22 423.34 342.22 412.28 342.22 400.82C342.22 395.093 342.22 389.267 342.22 383.34V374.4C342.199 373.636 342.222 372.871 342.29 372.11C342.474 370.925 343.031 369.83 343.879 368.983C344.728 368.136 345.825 367.581 347.01 367.4C347.777 367.322 348.549 367.299 349.32 367.33H382.52H415.52H440.1C440.713 367.302 441.328 367.349 441.93 367.47C443.136 367.751 444.217 368.418 445.01 369.37C445.78 370.31 446.222 371.476 446.27 372.69C446.27 373.86 446.27 374.99 446.27 376.12C446.27 378.38 446.27 380.6 446.27 382.77C446.27 387.123 446.27 391.29 446.27 395.27C446.27 411.19 446.21 424.08 446.19 433C446.19 435.23 446.19 437.21 446.19 438.92C446.266 439.647 446.182 440.382 445.944 441.073C445.705 441.764 445.318 442.395 444.81 442.92C444.163 443.552 443.347 443.983 442.46 444.16C442.171 444.354 441.854 444.502 441.52 444.6Z" fill="#263238"/>
<path d="M389.16 395.75H351.73V433.18H389.16V395.75Z" fill="#E0E0E0"/>
<path d="M437.13 398.02H398.59V401.22H437.13V398.02Z" fill="#E0E0E0"/>
<path d="M437.13 405.35H398.59V408.55H437.13V405.35Z" fill="#E0E0E0"/>
<path d="M437.13 412.68H398.59V415.88H437.13V412.68Z" fill="#E0E0E0"/>
<path d="M437.13 420H398.59V423.2H437.13V420Z" fill="#E0E0E0"/>
<path d="M322 469.31L191.26 469.23C175.53 469.23 162.79 455.82 162.8 439.3L162.86 94.85C162.86 78.32 175.62 64.92 191.36 64.93L322.07 65C337.8 65 350.54 78.42 350.53 95L350.47 439.44C350.47 455.93 337.71 469.32 322 469.31Z" fill="#25292A"/>
<path d="M321.93 77.19H296.59C293.19 77.19 290.43 80.19 290.43 83.95V88.78C290.43 92.51 287.67 95.54 284.27 95.54H234.86C231.47 95.54 228.71 92.54 228.71 88.77V83.9C228.71 80.16 225.96 77.13 222.56 77.13H213.64H191.46C180.46 77.13 171.46 86.51 171.46 98.13L171.4 434.33C171.4 445.91 180.32 455.33 191.33 455.33L321.81 455.41C332.81 455.41 341.76 446.03 341.76 434.41L341.83 98.21C341.87 86.59 333 77.2 321.93 77.19Z" fill="white"/>
<path d="M199.06 428.73V438.59C199.061 438.784 199.01 438.975 198.913 439.143C198.815 439.311 198.673 439.449 198.503 439.544C198.333 439.638 198.141 439.684 197.947 439.678C197.753 439.673 197.564 439.614 197.4 439.51L189.64 434.58C189.485 434.482 189.357 434.346 189.269 434.185C189.181 434.024 189.134 433.843 189.134 433.66C189.134 433.476 189.181 433.296 189.269 433.135C189.357 432.974 189.485 432.838 189.64 432.74L197.4 427.81C197.564 427.706 197.753 427.647 197.947 427.641C198.141 427.636 198.333 427.682 198.503 427.776C198.673 427.871 198.815 428.009 198.913 428.177C199.01 428.345 199.061 428.536 199.06 428.73Z" fill="#E0E0E0"/>
<path d="M262.8 433.57C262.796 434.914 262.394 436.227 261.644 437.342C260.894 438.458 259.831 439.326 258.588 439.838C257.345 440.35 255.979 440.482 254.661 440.217C253.343 439.952 252.133 439.303 251.184 438.351C250.235 437.399 249.59 436.188 249.329 434.869C249.068 433.551 249.204 432.185 249.719 430.943C250.234 429.702 251.106 428.641 252.224 427.895C253.342 427.148 254.656 426.75 256 426.75C256.894 426.751 257.779 426.929 258.605 427.272C259.431 427.616 260.181 428.118 260.812 428.752C261.444 429.385 261.944 430.136 262.285 430.963C262.626 431.79 262.801 432.676 262.8 433.57Z" fill="#E0E0E0"/>
<path d="M322.3 427.64H313.49C312.457 427.64 311.62 428.477 311.62 429.51V438.35C311.62 439.383 312.457 440.22 313.49 440.22H322.3C323.332 440.22 324.17 439.383 324.17 438.35V429.51C324.17 428.477 323.332 427.64 322.3 427.64Z" fill="#E0E0E0"/>
<path d="M153 314.19L117.61 306.41H37.2002L86.9102 315H152.74C153.66 315 153.85 314.33 153 314.19Z" fill="#D5DCE2"/>
<path d="M21.55 256L37.2 306.41H117.58L101.93 253.78C101.693 252.977 101.202 252.273 100.532 251.772C99.8615 251.271 99.047 251 98.21 251H25.21C24.6094 251.008 24.0189 251.156 23.4851 251.432C22.9513 251.707 22.4888 252.103 22.1339 252.588C21.7791 253.073 21.5417 253.633 21.4404 254.225C21.339 254.817 21.3766 255.425 21.55 256Z" fill="#D5DCE2"/>
<path d="M36 306.42C36 306.28 54.19 306.16 76.62 306.16C99.05 306.16 117.25 306.28 117.25 306.42C117.25 306.56 99.07 306.68 76.62 306.68C54.17 306.68 36 306.57 36 306.42Z" fill="#263238"/>
<path d="M73.0502 277.91C73.0521 278.813 72.7861 279.696 72.2858 280.447C71.7855 281.199 71.0735 281.785 70.2398 282.131C69.4062 282.477 68.4885 282.568 67.603 282.393C66.7175 282.217 65.9041 281.783 65.2658 281.144C64.6274 280.506 64.1929 279.693 64.0173 278.807C63.8417 277.922 63.9328 277.004 64.2792 276.17C64.6256 275.337 65.2116 274.625 65.963 274.124C66.7144 273.624 67.5974 273.358 68.5002 273.36C69.0977 273.36 69.6893 273.478 70.2414 273.706C70.7934 273.935 71.295 274.27 71.7175 274.693C72.14 275.115 72.4752 275.617 72.7038 276.169C72.9325 276.721 73.0502 277.313 73.0502 277.91Z" fill="white"/>
<path d="M156.89 269C156.99 269.11 150.22 275.32 141.77 282.86C133.32 290.4 126.39 296.44 126.3 296.33C126.21 296.22 133 290 141.42 282.46C149.84 274.92 156.8 268.89 156.89 269Z" fill="#263238"/>
<path d="M130.1 266.72C130.23 266.72 128.68 271.26 126.62 276.72C124.56 282.18 122.79 286.62 122.62 286.57C122.45 286.52 124.04 282.03 126.1 276.57C128.16 271.11 130 266.67 130.1 266.72Z" fill="#263238"/>
<path d="M155.59 298.72C155.59 298.87 150.41 299.78 143.96 300.72C137.51 301.66 132.28 302.38 132.26 302.24C132.24 302.1 137.44 301.24 143.89 300.24C150.34 299.24 155.57 298.58 155.59 298.72Z" fill="#263238"/>
<path d="M149.07 314.58C148.84 314.569 148.612 314.532 148.39 314.47L146.44 314.05L139.22 312.42L114.51 306.67H114.36V306.53C113.36 303.14 112.29 299.53 111.19 295.83L101.94 264.19L99.1898 254.59C98.8798 253.48 98.6398 252.59 98.4698 251.97C98.3998 251.69 98.3398 251.47 98.2898 251.29C98.2398 251.11 98.2898 251.05 98.2898 251.05C98.2898 251.05 98.2898 251.12 98.3798 251.27L98.6098 251.94L99.4198 254.53L102.33 264.09C104.75 272.21 108.07 283.36 111.73 295.69C112.83 299.39 113.89 303 114.89 306.39L114.7 306.22L139.37 312.14L146.56 313.92L148.49 314.42C148.686 314.464 148.879 314.517 149.07 314.58Z" fill="#263238"/>
<path d="M317.48 87.11H379.1C380.526 87.11 381.895 87.6768 382.904 88.6858C383.913 89.6947 384.48 91.0631 384.48 92.49V136.13C384.48 137.337 384 138.494 383.147 139.347C382.294 140.201 381.136 140.68 379.93 140.68H316.65C315.443 140.68 314.286 140.201 313.432 139.347C312.579 138.494 312.1 137.337 312.1 136.13V92.49C312.1 91.7835 312.239 91.0839 312.509 90.4312C312.779 89.7784 313.176 89.1854 313.675 88.6858C314.175 88.1862 314.768 87.7899 315.421 87.5195C316.074 87.2492 316.773 87.11 317.48 87.11Z" fill="white"/>
<path d="M317.48 87.11H379.1C380.526 87.11 381.895 87.6768 382.904 88.6858C383.913 89.6947 384.48 91.0631 384.48 92.49V98.85H312.1V92.49C312.1 91.0631 312.666 89.6947 313.675 88.6858C314.684 87.6768 316.053 87.11 317.48 87.11Z" fill="#E0E0E0"/>
<path d="M321.73 93.6C321.732 94.0261 321.607 94.4431 321.371 94.7982C321.136 95.1533 320.8 95.4305 320.407 95.5944C320.014 95.7584 319.581 95.8018 319.163 95.7192C318.745 95.6365 318.361 95.4316 318.059 95.1303C317.758 94.829 317.553 94.445 317.471 94.027C317.388 93.609 317.431 93.1759 317.595 92.7826C317.759 92.3893 318.036 92.0537 318.391 91.8182C318.747 91.5827 319.164 91.458 319.59 91.46C320.157 91.46 320.702 91.6855 321.103 92.0868C321.504 92.4881 321.73 93.0325 321.73 93.6Z" fill="white"/>
<path d="M328.3 93.6C328.3 94.0233 328.174 94.437 327.939 94.7889C327.704 95.1408 327.37 95.4151 326.979 95.5771C326.588 95.7391 326.158 95.7815 325.743 95.6989C325.327 95.6163 324.946 95.4125 324.647 95.1132C324.348 94.8139 324.144 94.4326 324.061 94.0175C323.979 93.6024 324.021 93.1721 324.183 92.7811C324.345 92.39 324.619 92.0558 324.971 91.8207C325.323 91.5855 325.737 91.46 326.16 91.46C326.728 91.46 327.272 91.6855 327.673 92.0868C328.075 92.4881 328.3 93.0324 328.3 93.6Z" fill="white"/>
<path d="M332.74 95.74C333.921 95.74 334.88 94.7819 334.88 93.6C334.88 92.4181 333.921 91.46 332.74 91.46C331.558 91.46 330.6 92.4181 330.6 93.6C330.6 94.7819 331.558 95.74 332.74 95.74Z" fill="white"/>
<path d="M379.92 140.68C379.92 140.68 380.13 140.68 380.54 140.61C381.144 140.519 381.723 140.305 382.24 139.98C383.086 139.457 383.736 138.67 384.09 137.74C384.54 136.65 384.33 135.25 384.37 133.74C384.37 127.56 384.32 118.65 384.29 107.66C384.29 104.91 384.29 102.02 384.29 99.02C384.29 97.52 384.29 96.02 384.29 94.42C384.29 93.65 384.29 92.83 384.29 92.08C384.228 91.309 383.989 90.5628 383.59 89.9C383.189 89.2167 382.636 88.6354 381.973 88.2017C381.311 87.7679 380.556 87.4935 379.77 87.4C378.15 87.32 376.41 87.4 374.7 87.4H364H341.16H318.23C317.719 87.3775 317.207 87.4009 316.7 87.47C315.713 87.6231 314.792 88.0617 314.051 88.7315C313.31 89.4014 312.781 90.2733 312.53 91.24C312.353 92.2295 312.295 93.2368 312.36 94.24V97.3C312.36 101.4 312.36 105.43 312.36 109.39C312.36 117.31 312.36 124.95 312.36 132.23V134.94C312.287 135.807 312.365 136.68 312.59 137.52C312.86 138.309 313.351 139.003 314.006 139.519C314.66 140.035 315.45 140.352 316.28 140.43C319.69 140.43 323.07 140.43 326.28 140.43H344.28L370.36 140.51H377.45H379.29C379.71 140.51 379.92 140.51 379.92 140.51H379.29H377.45L370.36 140.56L344.28 140.64H326.28C323.03 140.64 319.71 140.64 316.22 140.64C315.3 140.553 314.424 140.203 313.697 139.632C312.97 139.061 312.423 138.293 312.12 137.42C311.877 136.532 311.789 135.608 311.86 134.69V131.98C311.86 124.7 311.86 117.06 311.86 109.14V92.68C311.851 92.1379 311.911 91.5968 312.04 91.07C312.321 90.0066 312.906 89.0481 313.723 88.3112C314.54 87.5743 315.553 87.091 316.64 86.92C317.174 86.8526 317.712 86.8292 318.25 86.85H374.67C376.41 86.85 378.07 86.85 379.79 86.9C380.643 87.0059 381.461 87.3073 382.179 87.7808C382.897 88.2543 383.496 88.8871 383.93 89.63C384.359 90.3481 384.616 91.1559 384.68 91.99C384.68 92.82 384.68 93.58 384.68 94.37C384.68 95.93 384.68 97.47 384.68 98.97C384.68 101.97 384.68 104.86 384.68 107.61C384.68 118.61 384.61 127.51 384.59 133.69C384.59 134.45 384.59 135.18 384.59 135.86C384.607 136.511 384.498 137.16 384.27 137.77C383.887 138.717 383.206 139.514 382.33 140.04C381.797 140.363 381.199 140.564 380.58 140.63C380.362 140.666 380.141 140.683 379.92 140.68Z" fill="#263238"/>
<path d="M362.27 115C362.037 113.228 361.266 111.569 360.06 110.25C358.925 108.914 357.4 107.966 355.7 107.54C354.796 107.342 353.862 107.328 352.953 107.5C352.044 107.672 351.179 108.026 350.41 108.54C349.5 109.161 348.755 109.995 348.24 110.97C347.53 109.724 346.441 108.738 345.132 108.153C343.823 107.569 342.361 107.417 340.96 107.72C339.257 108.125 337.725 109.056 336.58 110.38C335.355 111.686 334.562 113.338 334.31 115.11C334.028 117.369 334.48 119.658 335.6 121.64C336.901 123.653 338.667 125.324 340.75 126.51C344.12 128.57 348.55 131.14 348.55 131.14C348.55 131.14 352.33 128.35 355.72 126.33C357.813 125.162 359.597 123.509 360.92 121.51C362.054 119.54 362.527 117.258 362.27 115Z" fill="#6D7BD3"/>
<path d="M68.4999 54.05H138.85C140.277 54.05 141.645 54.6168 142.654 55.6258C143.663 56.6347 144.23 58.0031 144.23 59.43V109.53C144.23 110.128 144.112 110.719 143.884 111.271C143.655 111.823 143.32 112.325 142.897 112.747C142.475 113.17 141.973 113.505 141.421 113.734C140.869 113.962 140.277 114.08 139.68 114.08H67.6799C66.4731 114.08 65.3158 113.601 64.4625 112.747C63.6093 111.894 63.1299 110.737 63.1299 109.53V59.43C63.1299 58.0049 63.6953 56.6379 64.7021 55.6293C65.7089 54.6206 67.0748 54.0526 68.4999 54.05Z" fill="white"/>
<path d="M68.4999 54.05H138.85C140.277 54.05 141.645 54.6168 142.654 55.6258C143.663 56.6347 144.23 58.0031 144.23 59.43V67.21H63.1299V59.43C63.1299 58.0049 63.6953 56.6379 64.7021 55.6293C65.7089 54.6206 67.0748 54.0526 68.4999 54.05Z" fill="#E0E0E0"/>
<path d="M71.5201 63.72C72.8456 63.72 73.9201 62.6455 73.9201 61.32C73.9201 59.9945 72.8456 58.92 71.5201 58.92C70.1946 58.92 69.1201 59.9945 69.1201 61.32C69.1201 62.6455 70.1946 63.72 71.5201 63.72Z" fill="white"/>
<path d="M78.8897 63.72C80.2152 63.72 81.2897 62.6455 81.2897 61.32C81.2897 59.9945 80.2152 58.92 78.8897 58.92C77.5643 58.92 76.4897 59.9945 76.4897 61.32C76.4897 62.6455 77.5643 63.72 78.8897 63.72Z" fill="white"/>
<path d="M86.2599 63.72C87.5853 63.72 88.6599 62.6455 88.6599 61.32C88.6599 59.9945 87.5853 58.92 86.2599 58.92C84.9344 58.92 83.8599 59.9945 83.8599 61.32C83.8599 62.6455 84.9344 63.72 86.2599 63.72Z" fill="white"/>
<path d="M139.68 114.08C139.68 114.08 139.92 114.08 140.38 113.99C141.057 113.873 141.699 113.607 142.26 113.21C143.156 112.554 143.777 111.588 144 110.5C144.111 109.796 144.145 109.082 144.1 108.37C144.1 107.6 144.1 106.79 144.1 105.92C144.1 98.98 144.1 88.92 144.02 76.59C144.02 73.49 144.02 70.25 144.02 66.87C144.02 65.18 144.02 63.46 144.02 61.7C144.02 60.83 144.02 59.92 144.02 59.06C143.958 58.1903 143.676 57.3506 143.2 56.62C142.71 55.8726 142.036 55.2639 141.242 54.8524C140.449 54.4408 139.563 54.2403 138.67 54.27H121H95.3099H69.4599C68.8823 54.2523 68.3042 54.2757 67.7299 54.34C66.618 54.511 65.5934 55.0434 64.8143 55.8549C64.0353 56.6665 63.5453 57.712 63.4199 58.83C63.3599 61.11 63.4199 63.47 63.4199 65.76C63.4199 70.36 63.4199 74.89 63.4199 79.35C63.4199 88.26 63.4199 96.85 63.4199 105.04V108.04C63.3241 109.015 63.4157 109.999 63.6899 110.94C64.022 111.823 64.6311 112.575 65.426 113.083C66.2209 113.592 67.1589 113.829 68.0999 113.76H79.3399H99.5899L128.92 113.84H136.92L128.92 113.89L99.5899 113.97H79.3399H68.0499C67.0236 114.029 66.004 113.771 65.1299 113.23C64.2423 112.671 63.564 111.834 63.1999 110.85C63.0054 110.36 62.9037 109.837 62.8999 109.31V104.74C62.8999 96.55 62.8999 87.96 62.8999 79.05V65.8C62.8999 63.48 62.8999 61.2 62.8999 58.8C63.0302 57.5597 63.5665 56.3972 64.4254 55.493C65.2844 54.5888 66.4179 53.9937 67.6499 53.8C68.2507 53.7327 68.8557 53.7093 69.4599 53.73H138.65C139.617 53.698 140.575 53.9171 141.432 54.3657C142.289 54.8143 143.015 55.4773 143.54 56.29C144.056 57.0792 144.36 57.9888 144.42 58.93C144.42 59.85 144.42 60.72 144.42 61.6C144.42 63.36 144.42 65.08 144.42 66.77C144.42 70.15 144.42 73.39 144.42 76.49C144.42 88.86 144.35 98.88 144.33 105.82C144.33 106.69 144.33 107.5 144.33 108.27C144.363 108.992 144.322 109.716 144.21 110.43C143.948 111.554 143.278 112.541 142.33 113.2C141.752 113.594 141.092 113.85 140.4 113.95C140.166 114.021 139.924 114.065 139.68 114.08Z" fill="#263238"/>
<path d="M121.5 99.56L119 96C117.491 93.8689 116.68 91.3216 116.68 88.71V80.71C116.676 77.6114 115.566 74.616 113.549 72.2637C111.533 69.9113 108.742 68.3567 105.68 67.88V64.08C105.68 63.6159 105.496 63.1708 105.168 62.8426C104.839 62.5144 104.394 62.33 103.93 62.33C103.701 62.33 103.474 62.3753 103.262 62.4634C103.05 62.5515 102.858 62.6805 102.696 62.8432C102.534 63.0058 102.407 63.1988 102.32 63.4111C102.233 63.6233 102.189 63.8507 102.19 64.08V67.82C99.0188 68.1909 96.0949 69.7158 93.9759 72.1041C91.8568 74.4925 90.6908 77.5771 90.7001 80.77V89C90.7035 91.8389 89.7526 94.5966 88.0001 96.83L85.8501 99.57L121.5 99.56Z" fill="#6D7BD3"/>
<path d="M101.8 105.34C102.768 105.732 103.827 105.846 104.857 105.669C105.887 105.492 106.847 105.032 107.63 104.34C108.299 103.72 108.804 102.943 109.1 102.08L98.7197 102C98.9724 102.74 99.3768 103.42 99.9072 103.995C100.438 104.57 101.082 105.028 101.8 105.34Z" fill="#6D7BD3"/>
<path d="M444.21 189.74L407.54 180.74C406.323 180.44 405.275 179.668 404.626 178.596C403.977 177.523 403.781 176.237 404.08 175.02L416.5 124.26C416.8 123.043 417.571 121.995 418.644 121.346C419.716 120.698 421.003 120.501 422.22 120.8L445.48 126.49L458.94 149.49L449.94 186.28C449.637 187.498 448.864 188.546 447.79 189.194C446.716 189.843 445.428 190.039 444.21 189.74Z" fill="#6D7BD3"/>
<g opacity="0.3">
<path d="M445.48 126.51L442 140.8C441.863 141.36 441.837 141.942 441.924 142.512C442.012 143.082 442.211 143.629 442.51 144.122C442.809 144.615 443.202 145.045 443.667 145.386C444.132 145.727 444.66 145.973 445.22 146.11L458.96 149.48L445.48 126.51Z" fill="black"/>
</g>
<path d="M439 139.46C439 139.64 435.13 138.86 430.44 137.72C425.75 136.58 421.99 135.49 422.04 135.31C422.09 135.13 425.92 135.9 430.6 137.05C435.28 138.2 439.09 139.28 439 139.46Z" fill="#FAFAFA"/>
<path d="M448 150.22C448 150.41 441.66 149.02 434 147.14C426.34 145.26 420.08 143.57 420.12 143.38C420.16 143.19 426.45 144.58 434.12 146.47C441.79 148.36 448.07 150 448 150.22Z" fill="#FAFAFA"/>
<path d="M448.89 157.58C448.84 157.77 441.99 156.25 433.59 154.19C425.19 152.13 418.4 150.31 418.45 150.13C418.5 149.95 425.34 151.47 433.75 153.52C442.16 155.57 448.93 157.4 448.89 157.58Z" fill="#FAFAFA"/>
<path d="M447.33 164C447.33 164.18 440.43 162.66 432.03 160.6C423.63 158.54 416.85 156.73 416.89 156.54C416.93 156.35 423.78 157.88 432.19 159.94C440.6 162 447.37 163.76 447.33 164Z" fill="#FAFAFA"/>
<path d="M445.77 170.31C445.77 170.49 438.88 168.97 430.47 166.92C422.06 164.87 415.29 163.04 415.33 162.86C415.37 162.68 422.23 164.19 430.63 166.25C439.03 168.31 445.82 170.13 445.77 170.31Z" fill="#FAFAFA"/>
<path d="M444.21 176.67C444.21 176.86 437.32 175.34 428.91 173.28C420.5 171.22 413.73 169.4 413.77 169.22C413.81 169.04 420.67 170.56 429.08 172.62C437.49 174.68 444.26 176.49 444.21 176.67Z" fill="#FAFAFA"/>
<path d="M436.25 392.6C429.324 392.6 422.682 389.849 417.784 384.953C412.886 380.057 410.133 373.416 410.13 366.49C410.133 359.563 412.885 352.921 417.783 348.023C422.681 343.125 429.323 340.373 436.25 340.37C443.176 340.373 449.817 343.126 454.713 348.024C459.609 352.922 462.36 359.564 462.36 366.49C462.36 369.919 461.685 373.314 460.372 376.482C459.06 379.65 457.137 382.528 454.712 384.953C452.288 387.377 449.41 389.3 446.242 390.612C443.074 391.925 439.679 392.6 436.25 392.6Z" fill="#6D7BD3"/>
<path d="M432.27 382.27H438.63V366.35H443.06L443.54 361.02H438.63V358.02C438.63 356.76 438.88 356.26 440.09 356.26H443.54V350.7H439.13C434.4 350.7 432.27 352.79 432.27 356.77V361H429V366.4H432.31L432.27 382.27Z" fill="white"/>
<path d="M227.13 80.54C219.383 80.54 211.953 77.4625 206.475 71.9846C200.997 66.5067 197.92 59.077 197.92 51.33C197.92 47.4946 198.676 43.6967 200.144 40.1533C201.612 36.61 203.763 33.3905 206.476 30.6789C209.188 27.9673 212.409 25.8167 215.952 24.3498C219.496 22.883 223.294 22.1287 227.13 22.13C234.874 22.13 242.301 25.2064 247.777 30.6825C253.253 36.1585 256.33 43.5857 256.33 51.33C256.331 55.1654 255.577 58.9636 254.11 62.5074C252.643 66.0513 250.493 69.2715 247.781 71.984C245.069 74.6965 241.85 76.8483 238.307 78.3163C234.763 79.7844 230.965 80.54 227.13 80.54Z" fill="#464D7A"/>
<path d="M227.13 38.21C231.4 38.21 231.91 38.21 233.6 38.3C234.624 38.3069 235.64 38.4931 236.6 38.85C237.279 39.118 237.895 39.5226 238.411 40.0386C238.927 40.5547 239.332 41.1712 239.6 41.85C239.957 42.8103 240.143 43.8256 240.15 44.85C240.23 46.54 240.25 47.05 240.25 51.32C240.25 55.59 240.25 56.11 240.15 57.79C240.142 58.8143 239.955 59.8294 239.6 60.79C239.332 61.4688 238.927 62.0853 238.411 62.6014C237.895 63.1174 237.279 63.522 236.6 63.79C235.64 64.147 234.624 64.3331 233.6 64.34C231.91 64.42 231.4 64.43 227.13 64.43C222.86 64.43 222.35 64.43 220.66 64.34C219.636 64.3305 218.621 64.1444 217.66 63.79C216.965 63.5313 216.337 63.1215 215.82 62.59C215.287 62.0745 214.877 61.4456 214.62 60.75C214.269 59.788 214.084 58.7738 214.07 57.75C214 56.07 213.98 55.56 213.98 51.28C213.98 47 213.98 46.5 214.07 44.81C214.081 43.786 214.267 42.7714 214.62 41.81C214.877 41.1144 215.287 40.4855 215.82 39.97C216.337 39.4386 216.965 39.0287 217.66 38.77C218.621 38.4156 219.636 38.2295 220.66 38.22C222.35 38.14 222.85 38.13 227.13 38.13M227.13 35.24C222.78 35.24 222.23 35.24 220.53 35.34C219.201 35.3641 217.885 35.6143 216.64 36.08C215.564 36.5047 214.595 37.1601 213.8 38C212.998 38.8027 212.384 39.7724 212 40.84C211.531 42.0848 211.278 43.4002 211.25 44.73C211.17 46.44 211.15 46.98 211.15 51.33C211.15 55.68 211.15 56.23 211.25 57.94C211.278 59.2666 211.531 60.5787 212 61.82C212.394 62.8919 213.023 63.8621 213.84 64.66C214.642 65.4746 215.611 66.1058 216.68 66.51C217.927 66.9704 219.241 67.2205 220.57 67.25C222.27 67.33 222.82 67.35 227.17 67.35C231.52 67.35 232.06 67.35 233.77 67.25C235.099 67.2205 236.413 66.9704 237.66 66.51C238.722 66.0952 239.687 65.4641 240.493 64.6568C241.298 63.8494 241.927 62.8834 242.34 61.82C242.809 60.5787 243.062 59.2666 243.09 57.94C243.16 56.23 243.18 55.68 243.18 51.33C243.18 46.98 243.18 46.44 243.09 44.73C243.062 43.4002 242.808 42.0848 242.34 40.84C241.925 39.7791 241.295 38.8156 240.49 38.0101C239.684 37.2047 238.721 36.5747 237.66 36.16C236.414 35.6954 235.099 35.4452 233.77 35.42C232.06 35.34 231.52 35.32 227.17 35.32" fill="white"/>
<path d="M227.13 43.11C225.501 43.108 223.908 43.5893 222.554 44.4928C221.199 45.3964 220.142 46.6816 219.518 48.1859C218.894 49.6901 218.73 51.3457 219.047 52.9431C219.365 54.5405 220.149 56.0079 221.3 57.1595C222.452 58.3111 223.919 59.0951 225.517 59.4123C227.114 59.7296 228.77 59.5657 230.274 58.9416C231.778 58.3175 233.063 57.261 233.967 55.9061C234.87 54.5511 235.352 52.9586 235.35 51.33C235.347 49.1507 234.48 47.0615 232.939 45.5205C231.398 43.9795 229.309 43.1126 227.13 43.11ZM227.13 56.67C226.074 56.67 225.041 56.3568 224.163 55.77C223.285 55.1833 222.6 54.3493 222.196 53.3735C221.792 52.3978 221.686 51.3241 221.892 50.2882C222.098 49.2524 222.607 48.3009 223.354 47.554C224.101 46.8072 225.052 46.2986 226.088 46.0926C227.124 45.8866 228.197 45.9923 229.173 46.3965C230.149 46.8006 230.983 47.4851 231.57 48.3632C232.156 49.2414 232.47 50.2738 232.47 51.33C232.47 52.7462 231.907 54.1045 230.906 55.1059C229.904 56.1074 228.546 56.67 227.13 56.67Z" fill="white"/>
<path d="M237.6 42.79C237.6 43.1721 237.486 43.5457 237.274 43.8633C237.061 44.1809 236.759 44.4282 236.406 44.574C236.053 44.7198 235.664 44.7574 235.29 44.6821C234.915 44.6069 234.571 44.4221 234.301 44.1511C234.032 43.8802 233.849 43.5354 233.776 43.1604C233.702 42.7853 233.742 42.3969 233.89 42.0445C234.037 41.692 234.286 41.3912 234.605 41.1804C234.923 40.9695 235.298 40.858 235.68 40.86C235.933 40.86 236.183 40.91 236.417 41.0071C236.65 41.1042 236.863 41.2465 237.041 41.4259C237.219 41.6052 237.361 41.8181 237.456 42.0522C237.552 42.2863 237.601 42.537 237.6 42.79Z" fill="white"/>
<path d="M70.9999 208.78C64.0724 208.78 57.4287 206.028 52.5303 201.13C47.6318 196.231 44.8799 189.587 44.8799 182.66C44.8799 179.23 45.5556 175.834 46.8683 172.666C48.1811 169.497 50.1053 166.619 52.5309 164.194C54.9565 161.769 57.836 159.846 61.0049 158.535C64.1739 157.223 67.5702 156.549 70.9999 156.55C77.9247 156.55 84.5659 159.301 89.4624 164.197C94.359 169.094 97.1099 175.735 97.1099 182.66C97.1099 189.586 94.3593 196.228 89.463 201.126C84.5668 206.024 77.9256 208.777 70.9999 208.78Z" fill="#464D7A"/>
<path fill-rule="evenodd" clip-rule="evenodd" d="M85.35 181.94C85.2506 178.301 83.7439 174.843 81.1469 172.293C78.55 169.742 75.0651 168.298 71.4253 168.265C67.7855 168.231 64.2745 169.61 61.6308 172.112C58.9871 174.614 57.4167 178.044 57.25 181.68C57.25 181.88 57.25 182.09 57.25 182.29C57.242 184.831 57.934 187.326 59.25 189.5L56.71 197L64.5 194.52C66.635 195.693 69.038 196.292 71.4739 196.259C73.9098 196.225 76.2954 195.56 78.3974 194.329C80.4994 193.098 82.246 191.342 83.4664 189.234C84.6868 187.125 85.3392 184.736 85.36 182.3C85.36 182.17 85.36 182.05 85.35 181.94ZM71.3 194C68.9866 194.006 66.7226 193.331 64.79 192.06L60.25 193.51L61.72 189.15C60.2572 187.154 59.469 184.744 59.47 182.27C59.47 181.889 59.49 181.509 59.53 181.13C59.8404 178.205 61.2292 175.501 63.4256 173.545C65.622 171.588 68.4683 170.52 71.4094 170.549C74.3505 170.578 77.1755 171.701 79.3332 173.7C81.491 175.699 82.8267 178.43 83.08 181.36C83.0951 181.663 83.0951 181.967 83.08 182.27C83.0641 185.385 81.8163 188.367 79.6092 190.565C77.402 192.762 74.4148 193.997 71.3 194Z" fill="white"/>
<path fill-rule="evenodd" clip-rule="evenodd" d="M77.74 185.11C77.39 184.94 75.74 184.11 75.39 184C75.04 183.89 74.84 183.83 74.61 184.17C74.38 184.51 73.71 185.28 73.52 185.5C73.33 185.72 73.11 185.76 72.77 185.59C71.7504 185.192 70.8092 184.616 69.99 183.89C69.2396 183.203 68.5958 182.407 68.08 181.53C67.88 181.19 68.08 181 68.23 180.83C68.38 180.66 68.57 180.43 68.75 180.23C68.7939 180.18 68.834 180.126 68.87 180.07C68.95 179.94 69.01 179.82 69.09 179.66C69.1398 179.568 69.166 179.465 69.166 179.36C69.166 179.255 69.1398 179.152 69.09 179.06C69 178.89 68.31 177.2 68.02 176.52C67.73 175.84 67.45 175.95 67.24 175.95C67.03 175.95 66.81 175.95 66.58 175.95C66.4051 175.953 66.2328 175.993 66.0743 176.067C65.9158 176.141 65.7747 176.248 65.66 176.38C65.2733 176.746 64.967 177.188 64.7604 177.679C64.5538 178.169 64.4515 178.698 64.46 179.23C64.4659 179.626 64.5231 180.019 64.63 180.4C64.8997 181.257 65.3196 182.06 65.87 182.77C66.04 182.99 68.25 186.56 71.75 187.94C75.25 189.32 75.26 188.85 75.89 188.79C76.3714 188.698 76.828 188.506 77.2296 188.225C77.6312 187.944 77.9687 187.581 78.22 187.16C78.4492 186.649 78.519 186.081 78.42 185.53C78.32 185.37 78.09 185.28 77.74 185.11Z" fill="white"/>
<path d="M416.16 263C420.037 265.492 424.55 266.815 429.16 266.81C444.92 266.81 453.83 253.5 453.29 241.56C454.951 240.359 456.387 238.872 457.53 237.17C455.978 237.854 454.334 238.302 452.65 238.5C454.421 237.441 455.747 235.774 456.38 233.81C454.714 234.799 452.891 235.495 450.99 235.87C449.711 234.507 448.019 233.604 446.175 233.3C444.331 232.997 442.438 233.311 440.79 234.193C439.143 235.074 437.832 236.475 437.062 238.178C436.291 239.881 436.104 241.79 436.53 243.61C433.154 243.443 429.85 242.566 426.835 241.038C423.82 239.51 421.161 237.364 419.03 234.74C417.946 236.609 417.615 238.821 418.103 240.925C418.592 243.03 419.863 244.869 421.66 246.07C420.309 246.034 418.988 245.67 417.81 245.01C417.786 246.988 418.454 248.912 419.697 250.451C420.94 251.99 422.681 253.047 424.62 253.44C423.371 253.782 422.061 253.833 420.79 253.59C421.331 255.277 422.386 256.752 423.809 257.809C425.231 258.865 426.948 259.45 428.72 259.48C425.164 262.269 420.647 263.534 416.16 263Z" fill="#464D7A"/>
<path d="M173.24 247.16L178.1 221.3L191.98 219.31L190.92 247.16H173.24Z" fill="#CC675D"/>
<path d="M191.78 224.75C191.78 224.75 198.9 220.4 201.88 215.24C204.86 210.08 212.2 206.9 211.6 205.51C211 204.12 207.6 203.33 205.65 204.51C203.7 205.69 199.1 211.09 197.12 208.51C195.14 205.93 194.86 193.34 194.46 189.37C194.06 185.4 192.61 181.95 191.22 182.89C189.83 183.83 189.22 184.48 189.65 189.13C190.03 193.52 190.17 201.54 188.98 200.13C187.79 198.72 187.39 180.48 185.8 180.13C185.341 180.039 184.867 180.056 184.416 180.181C183.966 180.306 183.55 180.534 183.203 180.848C182.856 181.162 182.588 181.552 182.419 181.989C182.25 182.425 182.185 182.894 182.23 183.36C182.43 185.69 182.4 202.95 182.23 200.57C182.06 198.19 181.05 190.5 179.77 187.29C178.77 184.87 176.32 187.88 176.77 190.06C177.22 192.24 179.51 206.13 178.52 205.93C178.52 205.93 176.34 194.82 175.35 194.22C174.36 193.62 172.69 196.38 173.16 198.79C173.9 202.56 175.16 209.9 175.54 214.66C175.92 219.42 178.12 225.38 179.54 225.97C180.96 226.56 191.78 224.75 191.78 224.75Z" fill="#CC675D"/>
<path d="M184.16 216.3C184.16 216.3 184.21 216.05 184.4 215.63C184.69 215.042 185.061 214.497 185.5 214.01C186.966 212.37 189.007 211.357 191.2 211.18C192.5 211.09 193.67 211.37 194.69 211.29C195.609 211.212 196.497 210.917 197.28 210.43C198.64 209.59 199.41 208.92 199.46 208.99C199.51 209.06 199.32 209.21 198.99 209.53C198.516 209.973 198.008 210.377 197.47 210.74C196.656 211.3 195.713 211.644 194.73 211.74C193.61 211.85 192.43 211.58 191.24 211.67C189.17 211.845 187.23 212.752 185.77 214.23C185.194 214.888 184.656 215.579 184.16 216.3Z" fill="#9C4741"/>
<g opacity="0.3">
<path d="M349.92 340.54C346.98 337.26 341.75 338.49 337.37 338.9C323.97 340.12 311.47 330.48 305.17 318.6C298.87 306.72 297.44 292.93 296.17 279.54C295.68 274.54 295.46 268.72 299.12 265.24C302.12 262.37 306.71 262.16 310.85 261.74C320.077 260.797 329.034 258.081 337.23 253.74C341.23 251.64 345.11 249.05 347.58 245.27C350.05 241.49 350.78 236.27 348.37 232.5C345.74 228.35 340.43 226.98 335.61 226.04C316.364 222.28 296.862 219.97 277.27 219.13C278.21 207.4 279.15 195.56 277.49 183.91C275.83 172.26 271.33 160.67 262.83 152.53C254.33 144.39 241.41 140.35 230.34 144.33C225.318 146.133 220.957 149.409 217.827 153.73C214.696 158.051 212.942 163.215 212.793 168.549C212.644 173.882 214.107 179.137 216.991 183.626C219.876 188.115 224.047 191.629 228.96 193.71C235.96 196.71 245.12 197.32 248.65 204.07C251.02 208.61 249.65 214.38 246.59 218.51C243.53 222.64 239.17 225.51 234.97 228.45C218.851 239.659 204.071 252.681 190.92 267.26L179.59 284.4C178.29 289.8 184.35 294.65 189.89 294.4C195.43 294.15 200.2 290.58 204.6 287.19C209 283.8 213.83 280.3 219.38 280.19C226.8 280.04 233.13 286.3 235.5 293.33C237.87 300.36 237.15 308.02 236.33 315.4C234.91 328.18 232.08 342.79 220.86 349.06C214.94 352.37 207.86 352.56 201.3 354.37C194.74 356.18 187.95 360.84 187.65 367.62C187.39 373.67 192.44 378.62 197.71 381.62C202.98 384.62 225.02 385.35 229.32 389.62C234.37 394.62 230.81 399.49 230.55 409.29C230.39 415.21 232.04 421.72 236.44 425.69C240.84 429.66 242.44 431.04 247.93 428.84C256.77 425.3 258.53 413.84 263.13 405.53C265.91 400.53 270.36 396.11 275.92 394.67C281.48 393.23 288.14 395.36 290.86 400.43C292.96 404.34 293.08 409.95 297.14 411.74C301.74 413.74 306.47 408.3 306.78 403.28C307.09 398.26 305.02 393.28 305.43 388.28C306.27 377.85 316.98 371.41 326.64 367.39C336.3 363.37 347.35 358.85 350.82 348.98C351.78 346.23 351.91 342.77 349.92 340.54Z" fill="black"/>
</g>
<path d="M283.55 387.5L298.86 380.67L287.49 356.27L271.22 364.87L283.55 387.5Z" fill="#FFBF9D"/>
<path d="M273.36 364.68L249.93 377.9L240.43 379.22C236.83 379.72 237.92 382.54 238.43 386.14L244.54 430.09C244.54 430.09 249.24 431.55 250.17 428.09C251.1 424.63 261.24 398.2 261.24 398.2L283.61 387.42L273.36 364.68Z" fill="#E0E0E0"/>
<path d="M273.36 364.68C273.36 364.68 273.43 364.8 273.55 365.06C273.67 365.32 273.85 365.72 274.08 366.21C274.56 367.21 275.25 368.75 276.14 370.68L283.74 387.38L283.81 387.52L283.67 387.59L261.32 398.41L261.42 398.3C259.42 403.69 257.2 409.46 254.92 415.51C253.79 418.51 252.63 421.64 251.51 424.81C251.22 425.6 250.95 426.4 250.68 427.2C250.54 427.61 250.45 427.99 250.29 428.42C250.222 428.639 250.125 428.848 250 429.04L249.82 429.33L249.59 429.59C248.919 430.224 248.033 430.581 247.11 430.59C246.216 430.641 245.32 430.539 244.46 430.29H244.32V430.15L244.26 429.69C242.6 417.75 241.03 406.36 239.59 395.98C239.23 393.38 238.89 390.85 238.59 388.39C238.41 387.16 238.26 385.95 238.06 384.76C237.79 383.58 237.709 382.365 237.82 381.16C237.871 380.848 237.986 380.55 238.158 380.285C238.33 380.02 238.556 379.793 238.82 379.62C239.336 379.318 239.907 379.124 240.5 379.05L243.79 378.6L249.98 377.76H249.93L267.16 368.14L271.83 365.56L273.04 364.89L273.44 364.68C273.44 364.68 273.3 364.78 273.02 364.94L271.8 365.65L267.15 368.32L250 378L243.81 378.87L240.52 379.34C239.983 379.4 239.465 379.574 239 379.85C238.78 379.997 238.593 380.189 238.452 380.413C238.311 380.637 238.218 380.888 238.18 381.15C238.085 382.313 238.173 383.484 238.44 384.62C238.65 385.81 238.8 387.03 238.97 388.26C239.32 390.72 239.67 393.26 240.04 395.84C241.48 406.22 243.04 417.61 244.74 429.55C244.74 429.71 244.76 429.86 244.8 430L244.64 429.82C245.45 430.047 246.29 430.142 247.13 430.1C247.942 430.091 248.72 429.777 249.31 429.22C249.805 428.564 250.147 427.805 250.31 427C250.58 426.19 250.86 425.39 251.14 424.6C252.27 421.42 253.43 418.32 254.56 415.29L261.1 398.09V398.02H261.17L283.56 387.29L283.49 387.49L276.08 370.81L274.08 366.27L273.56 365.08L273.36 364.68Z" fill="#263238"/>
<path d="M274.45 361.87L268.81 365.5C268.393 365.768 268.091 366.182 267.961 366.66C267.832 367.139 267.885 367.648 268.11 368.09L278.65 388.84C278.868 389.29 279.246 389.643 279.711 389.828C280.175 390.013 280.692 390.017 281.16 389.84L287.24 387.49C287.5 387.39 287.736 387.236 287.934 387.039C288.131 386.843 288.285 386.607 288.386 386.347C288.486 386.087 288.532 385.809 288.519 385.53C288.506 385.252 288.435 384.979 288.31 384.73L277.31 362.73C277.191 362.474 277.019 362.247 276.806 362.062C276.593 361.877 276.343 361.74 276.073 361.659C275.803 361.578 275.519 361.554 275.239 361.591C274.959 361.627 274.69 361.722 274.45 361.87Z" fill="#E0E0E0"/>
<path d="M279 389.66C278.249 388.719 277.58 387.715 277 386.66C275.83 384.76 274.28 382.1 272.73 379.07C271.18 376.04 269.94 373.22 269.13 371.14C268.72 370.14 268.41 369.26 268.21 368.66C268.076 368.366 267.992 368.052 267.96 367.73C268.534 368.784 269.042 369.873 269.48 370.99C270.39 372.99 271.68 375.8 273.22 378.82C274.76 381.84 276.22 384.52 277.33 386.47C277.963 387.491 278.521 388.558 279 389.66Z" fill="#263238"/>
<path d="M269.89 370.62C270.869 369.102 272.31 367.938 274 367.3C275.617 366.494 277.447 366.218 279.23 366.51C279.23 366.69 276.84 366.63 274.23 367.8C272.685 368.579 271.23 369.525 269.89 370.62Z" fill="#263238"/>
<path d="M272.79 378.73C274.246 377.537 275.845 376.529 277.55 375.73C279.172 374.771 280.909 374.022 282.72 373.5C281.145 374.514 279.505 375.423 277.81 376.22C276.196 377.171 274.519 378.01 272.79 378.73Z" fill="#263238"/>
<path d="M277.87 386.6C279.565 386.054 281.171 385.266 282.64 384.26C284.005 383.108 285.191 381.76 286.16 380.26C286.085 380.8 285.882 381.314 285.57 381.76C284.9 382.892 284.017 383.883 282.97 384.68C281.928 385.477 280.738 386.062 279.47 386.4C278.96 386.592 278.412 386.661 277.87 386.6Z" fill="#263238"/>
<path d="M239.12 389.29C239.12 389.2 239.93 388.99 241.12 388.39C242.708 387.624 244.107 386.516 245.215 385.144C246.323 383.773 247.114 382.173 247.53 380.46C247.86 379.14 247.89 378.29 247.98 378.29C248.12 379.036 248.096 379.804 247.91 380.54C247.582 382.355 246.802 384.057 245.644 385.492C244.485 386.927 242.985 388.047 241.28 388.75C240.608 389.085 239.871 389.27 239.12 389.29Z" fill="#263238"/>
<path d="M242.72 417.12C243.179 416.789 243.711 416.573 244.27 416.49C245.6 416.19 246.988 416.276 248.27 416.74C249.543 417.232 250.7 417.981 251.67 418.94C252.103 419.296 252.46 419.734 252.72 420.23C252.66 420.29 252.19 419.86 251.41 419.23C250.416 418.387 249.291 417.711 248.08 417.23C246.867 416.794 245.566 416.66 244.29 416.84C243.777 416.981 243.251 417.075 242.72 417.12Z" fill="#263238"/>
<path d="M219 332.72C219 332.72 196 329.85 188.7 331.34C181.4 332.83 167.57 341.49 168.9 354.64C170.23 367.79 178.9 377.2 189.56 378.87C200.22 380.54 259.67 386.56 282.7 386.25C302.2 385.99 312.79 381.05 310.57 378.01C310.57 378.01 331.1 370.2 333.24 369.29C334.89 368.58 365.06 353.64 368.24 348.15C371.42 342.66 378.89 324.02 365.75 314.7C352.61 305.38 330.14 311.7 326.15 314.7C324.15 316.17 320.69 317.2 313.66 322.33L306.95 317.71C306.47 318.07 252.44 321.85 231.06 322.82C227.36 323 219 332.72 219 332.72Z" fill="#263238"/>
<path d="M283.44 364.84C282.85 362.29 282.58 361.36 283.24 359.71C283.994 358.099 285.03 356.636 286.3 355.39C287.1 354.51 288.04 353.56 289.23 353.54C290.74 353.54 291.8 354.97 292.59 356.25C295.523 360.917 298.643 365.48 301.95 369.94C303.85 372.49 305.88 375.05 308.63 376.65C309.63 377.23 310.89 377.94 310.84 379.11C310.84 380.03 309.91 380.65 309.11 381.11C307.6 381.961 306.029 382.7 304.41 383.32C302.962 384.11 301.293 384.398 299.664 384.137C298.035 383.876 296.539 383.083 295.41 381.88C289.701 377.355 285.471 371.231 283.26 364.29" fill="#263238"/>
<path d="M283.27 364.28C283.31 364.345 283.341 364.416 283.36 364.49L283.59 365.11C283.78 365.67 284.08 366.47 284.52 367.49C285.769 370.358 287.393 373.048 289.35 375.49C290.692 377.175 292.166 378.75 293.76 380.2C294.62 380.97 295.53 381.77 296.51 382.5C297.49 383.275 298.655 383.782 299.89 383.97C301.2 384.053 302.512 383.841 303.73 383.35C305.039 382.878 306.318 382.327 307.56 381.7C308.19 381.38 308.84 381.05 309.43 380.7C309.727 380.552 309.987 380.34 310.191 380.079C310.395 379.818 310.538 379.514 310.61 379.19C310.591 378.858 310.49 378.536 310.315 378.253C310.14 377.971 309.898 377.736 309.61 377.57C309.03 377.16 308.34 376.82 307.71 376.38C305.342 374.58 303.287 372.4 301.63 369.93C299.93 367.63 298.34 365.38 296.87 363.21C295.4 361.04 294.04 358.95 292.8 356.97C292.283 355.995 291.607 355.113 290.8 354.36C290.42 354.031 289.949 353.825 289.45 353.77C288.975 353.739 288.501 353.85 288.09 354.09C287.331 354.603 286.656 355.23 286.09 355.95C285.517 356.562 284.98 357.207 284.48 357.88C283.647 358.918 283.133 360.176 283 361.5C283.022 362.347 283.136 363.188 283.34 364.01C283.34 364.27 283.43 364.49 283.47 364.66C283.481 364.736 283.481 364.814 283.47 364.89C283.442 364.818 283.418 364.745 283.4 364.67L283.23 364.03C282.984 363.207 282.839 362.358 282.8 361.5C282.902 360.128 283.407 358.817 284.25 357.73C284.748 357.036 285.282 356.368 285.85 355.73C286.444 354.974 287.152 354.316 287.95 353.78C288.418 353.505 288.958 353.376 289.5 353.41C290.046 353.458 290.567 353.663 291 354C291.847 354.771 292.557 355.681 293.1 356.69C294.35 358.69 295.71 360.69 297.19 362.9C298.67 365.11 300.27 367.3 301.97 369.58C303.606 372.01 305.634 374.152 307.97 375.92C308.58 376.35 309.25 376.67 309.89 377.13C310.216 377.356 310.503 377.632 310.74 377.95C310.985 378.297 311.105 378.716 311.08 379.14C311.005 379.535 310.841 379.909 310.6 380.231C310.359 380.553 310.048 380.816 309.69 381C309.06 381.4 308.42 381.71 307.78 382C306.521 382.631 305.225 383.185 303.9 383.66C302.631 384.168 301.264 384.383 299.9 384.29C298.596 384.089 297.367 383.548 296.34 382.72C295.373 381.989 294.449 381.204 293.57 380.37C291.967 378.905 290.492 377.305 289.16 375.59C287.204 373.124 285.608 370.394 284.42 367.48C284.09 366.693 283.803 365.888 283.56 365.07C283.49 364.81 283.43 364.6 283.38 364.43C283.34 364.382 283.304 364.332 283.27 364.28Z" fill="#464D7A"/>
<path d="M338.41 317C338.204 316.982 337.996 316.982 337.79 317C337.202 317.099 336.62 317.236 336.05 317.41C334.56 317.84 332.42 318.57 329.79 319.5C328.49 319.96 327 320.5 325.48 320.96C323.982 321.823 322.631 322.92 321.48 324.21C318.82 326.77 315.91 329.59 312.89 332.59C306.84 338.59 301.53 344.18 297.8 348.34C295.93 350.41 294.46 352.12 293.43 353.34C292.95 353.9 292.55 354.34 292.26 354.7C292.124 354.861 291.977 355.011 291.82 355.15C291.928 354.969 292.052 354.799 292.19 354.64L293.3 353.22C294.3 352.01 295.72 350.27 297.56 348.17C301.23 343.95 306.51 338.31 312.56 332.31C315.56 329.31 318.51 326.49 321.18 323.94C322.375 322.632 323.773 321.524 325.32 320.66C326.93 320.16 328.32 319.66 329.67 319.24C332.32 318.34 334.48 317.66 336 317.24C336.58 317.083 337.172 316.973 337.77 316.91C337.929 316.884 338.091 316.884 338.25 316.91C338.36 317 338.41 317 338.41 317Z" fill="#464D7A"/>
<path d="M258.61 359.94C258.404 359.867 258.204 359.781 258.01 359.68L256.34 358.85L250.21 355.74L241.16 351.07C237.533 349.056 233.77 347.295 229.9 345.8C227.873 345.111 225.783 344.622 223.66 344.34C222.617 344.198 221.604 343.887 220.66 343.42C219.794 342.901 219.034 342.222 218.42 341.42C217.26 340.055 215.706 339.084 213.97 338.64C212.454 338.243 210.887 338.071 209.32 338.13C206.44 338.22 204.1 338.55 202.47 338.55C201.846 338.569 201.222 338.553 200.6 338.5C200.381 338.496 200.163 338.465 199.95 338.41H200.6C201.03 338.41 201.66 338.41 202.46 338.41C204.08 338.36 206.4 337.98 209.31 337.85C210.911 337.769 212.516 337.927 214.07 338.32C214.937 338.544 215.77 338.88 216.55 339.32C217.376 339.806 218.113 340.428 218.73 341.16C219.316 341.917 220.038 342.558 220.86 343.05C221.761 343.489 222.727 343.779 223.72 343.91C225.87 344.19 227.987 344.682 230.04 345.38C233.93 346.883 237.706 348.664 241.34 350.71L250.34 355.46L256.4 358.71L258.03 359.61C258.234 359.701 258.428 359.811 258.61 359.94Z" fill="#464D7A"/>
<path d="M269.78 389.19L254.04 385.98L259.6 360.8L276.61 365.47L269.78 389.19Z" fill="#FFBF9D"/>
<path d="M274.57 365.74L299.23 373.23L306.87 372.62C307.44 372.572 308.014 372.638 308.558 372.814C309.103 372.99 309.607 373.272 310.041 373.644C310.476 374.016 310.832 374.471 311.089 374.982C311.347 375.493 311.5 376.049 311.54 376.62L315.12 420.96C315.12 420.96 309.91 422.16 308.33 419.14C306.75 416.12 292.88 394.62 292.88 394.62L269.72 389.19L274.57 365.74Z" fill="#E0E0E0"/>
<path d="M274.57 365.74C274.57 365.74 274.57 365.89 274.49 366.17C274.41 366.45 274.36 366.87 274.26 367.39C274.04 368.47 273.73 370.04 273.33 372.05C272.52 376.05 271.33 381.93 269.87 389.19L269.75 389L292.93 394.39H293.01V394.46L302.41 409.12C304.04 411.71 305.72 414.35 307.41 417.07C307.83 417.74 308.23 418.47 308.63 419.14C309.038 419.783 309.651 420.27 310.37 420.52C311.894 420.992 313.516 421.051 315.07 420.69L314.89 420.93C314.89 420.84 314.89 420.75 314.89 420.66C313.98 409.28 313.11 398.42 312.32 388.52C312.12 386.047 311.927 383.637 311.74 381.29C311.65 380.11 311.56 378.96 311.47 377.82C311.41 377.26 311.4 376.67 311.31 376.15C311.213 375.623 311.012 375.12 310.72 374.67C310.148 373.785 309.262 373.149 308.24 372.89C307.222 372.74 306.188 372.74 305.17 372.89L299.26 373.36H299.2L281.2 367.81L276.29 366.27L275 365.86L274.56 365.71L274.98 365.82L276.25 366.19L281.14 367.64L299.27 373.05H299.21L305.11 372.56L306.67 372.43C307.216 372.372 307.767 372.409 308.3 372.54C309.139 372.745 309.902 373.186 310.498 373.812C311.094 374.438 311.497 375.222 311.66 376.07C311.76 376.67 311.77 377.21 311.83 377.79C311.92 378.93 312.02 380.08 312.11 381.26C312.3 383.6 312.5 386.02 312.7 388.49C313.51 398.39 314.39 409.24 315.31 420.63V420.89V421.09H315.12C313.467 421.481 311.739 421.415 310.12 420.9C309.292 420.624 308.585 420.069 308.12 419.33C307.7 418.62 307.33 417.95 306.91 417.27C305.26 414.55 303.59 411.9 301.91 409.32L292.55 394.64L292.67 394.73L269.52 389.25H269.37V389.1C270.92 381.81 272.16 375.95 273.02 371.89L274.02 367.28L274.28 366.1C274.53 365.87 274.57 365.74 274.57 365.74Z" fill="#263238"/>
<path d="M272.66 362.19L279.66 364.78C280.133 364.949 280.525 365.289 280.759 365.734C280.992 366.179 281.05 366.695 280.92 367.18L275.07 389.93C274.949 390.416 274.649 390.839 274.23 391.115C273.812 391.391 273.305 391.5 272.81 391.42L266.3 390.42C266.021 390.381 265.753 390.284 265.515 390.134C265.276 389.984 265.071 389.786 264.915 389.552C264.758 389.318 264.652 389.053 264.605 388.775C264.558 388.497 264.57 388.213 264.64 387.94L270.82 363.14C270.87 362.952 270.96 362.776 271.082 362.624C271.204 362.472 271.357 362.348 271.53 362.258C271.703 362.169 271.893 362.117 272.088 362.105C272.282 362.093 272.477 362.122 272.66 362.19Z" fill="#E0E0E0"/>
<path d="M272.66 362.19C272.419 362.147 272.172 362.147 271.93 362.19C271.639 362.25 271.378 362.409 271.19 362.64C270.96 362.98 270.816 363.372 270.77 363.78C270.32 365.66 269.69 368.31 268.91 371.56C268.13 374.81 267.14 378.76 266.08 383.1L265.26 386.43C265.12 386.99 264.99 387.56 264.85 388.14C264.772 388.546 264.836 388.966 265.03 389.33C265.225 389.694 265.539 389.98 265.92 390.14C266.191 390.237 266.473 390.297 266.76 390.32L268.61 390.6L272.39 391.16C272.685 391.227 272.988 391.257 273.29 391.25C273.574 391.217 273.848 391.122 274.09 390.97C274.327 390.817 274.525 390.612 274.67 390.37C274.802 390.108 274.896 389.828 274.95 389.54C275.27 388.32 275.58 387.13 275.88 385.95L277.64 379.16L280.64 367.67C280.774 367.299 280.835 366.905 280.82 366.51C280.784 366.142 280.637 365.794 280.4 365.51C279.97 364.94 279.21 364.82 278.59 364.51L275.38 363.28L273.38 362.49C273.139 362.405 272.905 362.301 272.68 362.18C272.929 362.235 273.173 362.308 273.41 362.4L275.47 363.12L278.71 364.27L279.71 364.63C280.1 364.749 280.448 364.978 280.71 365.29C280.98 365.615 281.151 366.011 281.2 366.43C281.224 366.86 281.167 367.291 281.03 367.7L278.12 379.21C277.56 381.377 276.98 383.643 276.38 386.01L275.46 389.6C275.397 389.931 275.286 390.251 275.13 390.55C274.949 390.856 274.699 391.116 274.4 391.31C273.944 391.595 273.403 391.712 272.87 391.64L272.39 391.56L268.61 391L266.76 390.72C266.436 390.686 266.116 390.612 265.81 390.5C265.343 390.3 264.958 389.948 264.717 389.502C264.475 389.055 264.392 388.54 264.48 388.04C264.62 387.43 264.77 386.88 264.91 386.3C265.19 385.17 265.47 384.06 265.75 382.98C266.84 378.65 267.83 374.75 268.67 371.46C269.51 368.17 270.19 365.59 270.67 363.71C270.731 363.283 270.896 362.878 271.15 362.53C271.367 362.289 271.66 362.13 271.98 362.08C272.168 362.036 272.363 362.036 272.55 362.08C272.61 362.15 272.67 362.19 272.66 362.19Z" fill="#263238"/>
<path d="M279.73 370.06C278.376 368.86 276.726 368.042 274.951 367.691C273.176 367.339 271.339 367.467 269.63 368.06C271.368 367.927 273.115 367.987 274.84 368.24C276.531 368.668 278.171 369.278 279.73 370.06Z" fill="#263238"/>
<path d="M278 378.61C276.419 377.783 274.739 377.161 273 376.76C271.307 376.194 269.55 375.838 267.77 375.7C269.431 376.341 271.135 376.863 272.87 377.26C274.547 377.827 276.261 378.278 278 378.61Z" fill="#263238"/>
<path d="M275.36 387.55C275.36 387.37 272.85 387.55 270.15 386.29C268.558 385.456 267.097 384.395 265.81 383.14C266.005 383.654 266.317 384.116 266.72 384.49C267.625 385.458 268.708 386.242 269.91 386.8C271.116 387.351 272.416 387.666 273.74 387.73C274.287 387.793 274.841 387.732 275.36 387.55Z" fill="#263238"/>
<path d="M311.7 381.64C311.7 381.56 310.88 381.54 309.62 381.23C307.975 380.842 306.436 380.095 305.113 379.042C303.79 377.989 302.717 376.657 301.97 375.14C301.39 373.98 301.19 373.14 301.1 373.2C301.128 373.927 301.312 374.64 301.64 375.29C302.323 376.92 303.406 378.351 304.79 379.45C306.172 380.545 307.804 381.28 309.54 381.59C310.248 381.764 310.985 381.781 311.7 381.64Z" fill="#263238"/>
<path d="M314.11 408.42C313.612 408.206 313.07 408.114 312.53 408.15C311.208 408.142 309.913 408.517 308.8 409.23C307.708 409.947 306.781 410.888 306.08 411.99C305.741 412.41 305.495 412.898 305.36 413.42C305.43 413.42 305.77 412.96 306.36 412.21C307.121 411.223 308.036 410.366 309.07 409.67C310.112 409.009 311.3 408.614 312.53 408.52C313.059 408.537 313.588 408.504 314.11 408.42Z" fill="#263238"/>
<path d="M259.71 388.63C264.24 382.72 266.07 375.13 266.4 367.7C266.591 366.047 266.339 364.373 265.67 362.85C264.96 361.705 263.995 360.74 262.85 360.03C261.17 358.856 259.378 357.851 257.5 357.03C257.246 356.876 256.96 356.781 256.664 356.752C256.368 356.723 256.07 356.759 255.79 356.86C255.17 357.2 255.08 358.03 255.05 358.73C254.67 367.652 252.578 376.417 248.89 384.55C248.726 384.901 248.648 385.286 248.661 385.673C248.674 386.06 248.779 386.439 248.966 386.778C249.153 387.117 249.417 387.407 249.738 387.625C250.058 387.842 250.426 387.981 250.81 388.03L255.08 388.6C256.613 388.839 258.174 388.849 259.71 388.63Z" fill="#263238"/>
<path d="M259.71 388.63L259.51 388.68L258.89 388.78C258.1 388.867 257.304 388.891 256.51 388.85C255.51 388.85 254.22 388.62 252.76 388.45C252.03 388.35 251.27 388.29 250.42 388.13C249.967 388.006 249.557 387.762 249.231 387.424C248.906 387.086 248.677 386.667 248.57 386.21C248.457 385.716 248.484 385.199 248.65 384.72C248.84 384.25 249.04 383.82 249.24 383.35C249.63 382.42 250.02 381.46 250.4 380.44C251.16 378.44 251.88 376.21 252.51 373.86C253.865 368.749 254.653 363.504 254.86 358.22C254.897 357.836 255.016 357.464 255.21 357.13C255.32 356.96 255.467 356.818 255.64 356.714C255.813 356.61 256.008 356.547 256.21 356.53C256.939 356.593 257.646 356.814 258.28 357.18C259.514 357.764 260.707 358.433 261.85 359.18C262.992 359.853 264.041 360.674 264.97 361.62C265.846 362.586 266.383 363.811 266.5 365.11C266.61 366.307 266.61 367.513 266.5 368.71C266.43 369.87 266.31 370.99 266.18 372.07C265.924 374.072 265.529 376.053 265 378C264.231 380.812 263.076 383.504 261.57 386C261.156 386.69 260.705 387.358 260.22 388L259.84 388.48C259.799 388.538 259.752 388.592 259.7 388.64C259.726 388.571 259.763 388.507 259.81 388.45C259.9 388.31 260.02 388.14 260.15 387.93C260.46 387.5 260.9 386.82 261.41 385.93C262.852 383.42 263.955 380.73 264.69 377.93C265.205 375.992 265.586 374.021 265.83 372.03C265.96 370.96 266.07 369.84 266.13 368.69C266.24 367.519 266.24 366.341 266.13 365.17C266.019 363.96 265.517 362.819 264.7 361.92C263.802 361.011 262.794 360.218 261.7 359.56C260.569 358.845 259.393 358.204 258.18 357.64C257.612 357.312 256.982 357.104 256.33 357.03C255.72 357.03 255.41 357.66 255.33 358.33C255.11 363.627 254.299 368.883 252.91 374C252.301 376.238 251.58 378.444 250.75 380.61C250.37 381.61 249.96 382.61 249.56 383.52C249.36 383.98 249.14 384.44 248.97 384.87C248.814 385.286 248.787 385.738 248.89 386.17C248.977 386.573 249.172 386.945 249.454 387.246C249.735 387.547 250.094 387.766 250.49 387.88C251.27 388.04 252.08 388.11 252.8 388.23C254.25 388.42 255.5 388.64 256.52 388.71C257.309 388.76 258.101 388.76 258.89 388.71L259.5 388.66C259.64 388.62 259.71 388.62 259.71 388.63Z" fill="#464D7A"/>
<path d="M257.19 356.17C257.09 356.23 256.34 354.86 254.89 352.83C252.991 350.197 250.775 347.809 248.29 345.72C245.794 343.64 243.046 341.883 240.11 340.49C237.85 339.42 236.38 338.93 236.41 338.82C236.78 338.841 237.144 338.919 237.49 339.05C238.451 339.321 239.393 339.655 240.31 340.05C246.441 342.638 251.663 346.993 255.31 352.56C255.859 353.392 256.357 354.257 256.8 355.15C256.98 355.469 257.111 355.813 257.19 356.17Z" fill="#464D7A"/>
<path d="M299.32 336.36C298.635 337.309 297.876 338.202 297.05 339.03C295.62 340.65 293.71 342.95 291.79 345.62C289.87 348.29 288.32 350.84 287.24 352.71C286.721 353.757 286.119 354.76 285.44 355.71C285.764 354.574 286.228 353.482 286.82 352.46C288.106 349.931 289.584 347.504 291.24 345.2C292.893 342.895 294.715 340.716 296.69 338.68C297.469 337.803 298.352 337.024 299.32 336.36Z" fill="#464D7A"/>
<path d="M245 120C244.132 119.307 243.115 118.825 242.028 118.591C240.942 118.357 239.817 118.377 238.74 118.65C237.91 119.015 236.985 119.106 236.1 118.91C235.555 118.566 235.072 118.134 234.67 117.63C234.295 117.315 233.859 117.078 233.391 116.934C232.922 116.79 232.429 116.742 231.941 116.792C231.453 116.843 230.98 116.991 230.551 117.227C230.121 117.464 229.743 117.785 229.44 118.17C229.212 118.602 228.911 118.991 228.55 119.32C226.93 120.44 224.55 117.46 223 118.6C223.818 118.795 224.558 119.234 225.12 119.86C225.392 120.179 225.549 120.581 225.565 120.999C225.581 121.418 225.456 121.831 225.21 122.17C223.78 123.8 220.71 120.97 219.06 122.38C218.17 123.14 218.25 124.81 217.16 125.23C216.717 125.328 216.261 125.352 215.81 125.3C215.044 125.343 214.324 125.679 213.798 126.237C213.272 126.795 212.979 127.533 212.98 128.3C212.98 129.59 213.86 131.07 212.98 132.05C212.674 132.309 212.315 132.499 211.928 132.606C211.542 132.713 211.136 132.735 210.74 132.67C210.908 133.847 211.347 134.97 212.02 135.95C211.079 136.72 210.475 137.826 210.335 139.033C210.195 140.241 210.53 141.455 211.27 142.42C210.3 143.288 209.508 144.338 208.94 145.51C208.664 146.101 208.559 146.757 208.639 147.405C208.718 148.052 208.979 148.664 209.39 149.17C209.613 149.365 209.811 149.587 209.98 149.83C210.1 150.128 210.142 150.452 210.1 150.77C209.872 151.983 209.781 153.217 209.83 154.45C210.03 155.66 211.11 156.89 212.32 156.62C212.6 156.56 212.9 156.42 213.16 156.55C213.253 156.606 213.333 156.68 213.397 156.768C213.46 156.855 213.506 156.955 213.53 157.06C213.722 157.929 213.78 158.823 213.7 159.71C213.615 160.601 213.872 161.492 214.42 162.2C214.564 162.365 214.741 162.498 214.94 162.589C215.14 162.68 215.356 162.727 215.575 162.727C215.794 162.727 216.011 162.68 216.21 162.589C216.409 162.498 216.587 162.365 216.73 162.2C216.56 163.61 216.38 165.01 216.21 166.42C216.11 167.26 216.07 168.25 216.74 168.77C217.61 169.45 218.93 168.65 219.4 167.65C219.87 166.65 219.87 165.48 220.4 164.49C220.64 164.109 220.838 163.704 220.99 163.28C221.018 162.925 221.131 162.582 221.32 162.28C221.81 161.75 222.76 162.41 222.77 163.12C222.693 163.806 222.426 164.457 222 165C221.777 165.279 221.64 165.616 221.606 165.972C221.572 166.327 221.643 166.684 221.81 167C222.02 167.28 222.37 167.43 222.57 167.71C223.29 168.71 221.9 169.87 221.87 171.07C221.93 171.508 222.088 171.927 222.334 172.295C222.581 172.662 222.907 172.968 223.29 173.19C224.15 173.84 225.7 174.26 226.05 173.24C226.1 172.872 226.13 172.501 226.14 172.13C226.291 171.715 226.538 171.342 226.86 171.04C227.573 170.205 228.025 169.18 228.16 168.09C227.4 169.32 226.64 170.92 227.45 172.09C227.839 172.552 228.298 172.951 228.81 173.27C229.74 174.01 230.39 175.05 231.31 175.8C232.23 176.55 233.63 176.97 234.58 176.26C234.495 176.848 234.608 177.448 234.901 177.965C235.195 178.483 235.651 178.887 236.2 179.117C236.749 179.346 237.358 179.386 237.932 179.231C238.506 179.076 239.012 178.734 239.37 178.26C239.528 177.973 239.746 177.724 240.01 177.53C240.328 177.405 240.673 177.367 241.01 177.42C242.078 177.453 243.135 177.19 244.063 176.661C244.991 176.132 245.755 175.356 246.27 174.42L245.17 174.19C247.247 173.807 249.206 172.944 250.89 171.67C252.45 170.27 253.26 167.79 252.12 166.02C251.63 165.26 250.77 164.52 251 163.64C251.16 163.03 251.78 162.64 252.34 162.4L259.34 158.85C260.531 158.376 261.569 157.584 262.34 156.56C263 155.47 262.85 153.79 261.71 153.23C262.136 152.01 262.899 150.935 263.91 150.13C265.04 149.24 266.43 148.72 267.6 147.88C268.77 147.04 269.76 145.66 269.48 144.25C269.2 142.84 267.09 141.99 266.24 143.16C266.16 140.99 269.97 140.35 270.02 138.16C270.07 136.4 267.73 135.79 266.41 134.61C266.57 133.98 267.13 133.52 267.31 132.89C267.67 131.58 266.21 130.5 264.91 130.08C263.61 129.66 262.04 129.26 261.57 127.98C261.1 126.7 262.06 124.98 261.18 123.91C260.926 123.617 260.572 123.43 260.187 123.386C259.802 123.341 259.414 123.443 259.1 123.67C257.79 121.33 253.37 123.8 251.71 121.67C251.57 121.507 251.486 121.304 251.47 121.09C251.482 120.905 251.541 120.726 251.64 120.57C252.186 119.889 252.81 119.275 253.5 118.74C253.838 118.463 254.082 118.089 254.2 117.669C254.318 117.249 254.304 116.802 254.16 116.39C253.74 115.62 252.21 115.85 252.34 116.71C252.088 116.563 251.806 116.475 251.515 116.453C251.225 116.431 250.932 116.475 250.661 116.581C250.39 116.688 250.146 116.855 249.948 117.07C249.751 117.284 249.604 117.541 249.52 117.82C249.138 117.54 248.672 117.397 248.198 117.415C247.724 117.433 247.27 117.611 246.91 117.92C246.211 118.566 245.673 119.368 245.34 120.26" fill="#263238"/>
<path d="M236.84 148.84C237.23 145.2 239.56 142.03 242.23 139.52C243.29 138.394 244.613 137.549 246.08 137.06C246.817 136.834 247.604 136.827 248.346 137.038C249.087 137.249 249.752 137.67 250.26 138.25L250.32 140.81C251.07 144.81 248.32 148.56 247.21 152.5C246.74 154.21 246.42 156.24 244.87 157.11C244.024 157.533 243.052 157.629 242.14 157.38C238.56 156.55 236.45 152.48 236.84 148.84Z" fill="#6D7BD3"/>
<path d="M238.47 167.59C237.205 166.145 236.489 164.301 236.447 162.382C236.405 160.462 237.04 158.589 238.24 157.09C236.57 155.36 236.84 152.42 238.19 150.43C239.54 148.44 241.7 147.17 243.79 145.96C244.251 143.174 245.76 140.671 248.008 138.962C250.256 137.253 253.072 136.469 255.88 136.77C258.35 132.34 264.35 131.13 269.34 132.1C270.539 132.422 271.778 132.574 273.02 132.55C273.918 132.398 274.807 132.191 275.68 131.93C280.57 130.81 285.79 133.83 288.14 138.24C288.464 138.958 288.881 139.63 289.38 140.24C290.174 140.937 291.055 141.528 292 142C292.955 142.617 293.766 143.431 294.379 144.389C294.991 145.346 295.391 146.425 295.55 147.55C295.81 149.45 295.38 151.55 296.35 153.21C296.949 153.961 297.509 154.742 298.03 155.55C299.19 158.1 296.51 161.06 297.3 163.74C297.46 164.28 297.76 164.74 297.97 165.31C298.385 166.412 298.385 167.628 297.97 168.73C297.529 169.515 297.24 170.377 297.12 171.27C297.225 171.959 297.42 172.631 297.7 173.27C298.19 174.87 295.24 181.48 293.9 182.49L251.72 186.74C250.093 186.532 248.572 185.822 247.368 184.709C246.163 183.596 245.336 182.135 245 180.53C244.97 179.985 244.782 179.46 244.46 179.02C244.104 178.722 243.688 178.503 243.24 178.38C240.39 177.17 239.72 173.48 239.73 170.38C239.754 169.949 239.706 169.516 239.59 169.1C239.32 168.527 238.94 168.014 238.47 167.59Z" fill="#263238"/>
<path d="M250.2 166.54C249.4 159.1 253.3 150.11 260.39 145.79C264.85 143.06 268.5 142.71 270.94 142.2C274.36 141.557 277.895 141.965 281.08 143.37C283.46 143.7 292.7 150.7 293.92 159.11C295.27 168.45 296.55 179.9 296 186.99C294.89 201.26 284.21 203.93 284.21 203.93L285.65 214.58L270.78 223.44L255 216.78L250.2 166.54Z" fill="#CC675D"/>
<path d="M275.25 187.09C275.265 186.417 275.52 185.771 275.97 185.27C276.385 184.804 276.941 184.487 277.554 184.368C278.166 184.249 278.801 184.334 279.36 184.61C280.49 185.18 280.79 186.37 280.78 187.76C280.31 188.63 279.99 189.48 279.02 189.7C278.868 189.732 278.715 189.756 278.56 189.77C277.789 189.875 277.007 189.686 276.37 189.24C276.034 188.989 275.758 188.665 275.564 188.293C275.37 187.921 275.263 187.51 275.25 187.09Z" fill="#9C4741"/>
<path d="M284.94 170.61C285.13 170.34 286.63 171.16 288.57 170.89C290.51 170.62 291.79 169.46 292.04 169.66C292.29 169.86 291.98 170.21 291.43 170.74C290.67 171.436 289.713 171.879 288.69 172.01C287.684 172.153 286.659 171.975 285.76 171.5C285.1 171.12 284.84 170.73 284.94 170.61Z" fill="#263238"/>
<path d="M281.31 181.05C282.31 180.642 283.359 180.363 284.43 180.22C284.92 180.13 285.38 179.99 285.43 179.65C285.433 179.132 285.276 178.625 284.98 178.2C284.41 177.04 283.82 175.82 283.2 174.54C280.72 169.33 278.89 165.02 279.1 164.93C279.31 164.84 281.49 168.93 283.97 174.19L285.69 177.88C286.05 178.451 286.195 179.132 286.1 179.8C286.042 179.982 285.944 180.149 285.812 180.288C285.68 180.426 285.519 180.533 285.34 180.6C285.072 180.696 284.793 180.756 284.51 180.78C283.459 181.005 282.384 181.095 281.31 181.05Z" fill="#263238"/>
<path d="M284.23 203.93C277.572 204.577 270.864 203.369 264.85 200.44C264.85 200.44 270.68 209.95 284.72 207.49L284.23 203.93Z" fill="#9C4741"/>
<path d="M291.42 160.51C291.13 161.01 289.61 160.81 287.88 161.1C286.15 161.39 284.74 161.96 284.32 161.56C284.13 161.37 284.32 160.89 284.85 160.37C285.627 159.701 286.583 159.273 287.6 159.14C288.615 158.967 289.66 159.099 290.6 159.52C291.26 159.86 291.54 160.27 291.42 160.51Z" fill="#263238"/>
<path d="M272.93 171.78C272.68 171.57 271.44 172.78 269.49 172.98C267.54 173.18 266.01 172.42 265.83 172.69C265.74 172.8 266.02 173.2 266.69 173.57C267.61 174.054 268.659 174.24 269.69 174.1C270.701 173.986 271.649 173.547 272.39 172.85C272.91 172.32 273.06 171.87 272.93 171.78Z" fill="#263238"/>
<path d="M264 163.39C264.44 163.78 265.88 163.15 267.68 162.91C269.48 162.67 271.04 162.81 271.34 162.31C271.47 162.07 271.18 161.66 270.46 161.31C269.487 160.914 268.426 160.786 267.386 160.939C266.347 161.092 265.368 161.52 264.55 162.18C263.94 162.71 263.79 163.19 264 163.39Z" fill="#263238"/>
<path d="M253.92 179.7C253.83 178.7 252.42 176.28 251.36 176.2C248.56 175.99 243.57 176.62 244.09 183.65C244.81 193.25 254.33 190.55 254.33 190.28C254.33 190.01 254.22 183.32 253.92 179.7Z" fill="#CC675D"/>
<path d="M251.41 187C251.41 187 251.25 187.13 250.98 187.28C250.591 187.482 250.14 187.525 249.72 187.4C248.72 187.11 247.72 185.56 247.53 183.83C247.443 183.009 247.542 182.178 247.82 181.4C247.885 181.087 248.027 180.796 248.233 180.551C248.439 180.307 248.703 180.117 249 180C249.186 179.94 249.387 179.946 249.569 180.017C249.751 180.088 249.904 180.22 250 180.39C250.15 180.64 250.1 180.84 250.16 180.85C250.22 180.86 250.35 180.68 250.24 180.29C250.172 180.053 250.024 179.848 249.82 179.71C249.674 179.613 249.51 179.548 249.338 179.519C249.166 179.49 248.989 179.497 248.82 179.54C248.431 179.647 248.076 179.853 247.789 180.136C247.502 180.42 247.292 180.772 247.18 181.16C246.836 182.023 246.705 182.956 246.8 183.88C247 185.81 248.13 187.55 249.55 187.88C249.814 187.936 250.087 187.933 250.35 187.87C250.613 187.808 250.859 187.688 251.07 187.52C251.41 187.2 251.45 187 251.41 187Z" fill="#9C4741"/>
<path d="M296.43 159.07C294.38 158.01 293.01 156.47 292.94 154.17C291.68 154.66 290.24 153.11 289.4 152.06C288.56 151.01 287.58 150.52 287.53 149.18C287.549 148.91 287.494 148.641 287.37 148.4C287.15 148.05 286.68 147.97 286.27 147.88C285.219 147.633 284.246 147.126 283.441 146.406C282.636 145.687 282.024 144.777 281.66 143.76C279.656 144.827 277.42 145.384 275.15 145.38C274.705 146.145 274.075 146.784 273.316 147.24C272.558 147.695 271.697 147.952 270.814 147.986C269.93 148.02 269.052 147.83 268.261 147.434C267.47 147.038 266.792 146.448 266.29 145.72C266.012 146.331 265.605 146.875 265.098 147.315C264.59 147.755 263.994 148.081 263.35 148.27C262.05 148.646 260.703 148.831 259.35 148.82C259.703 150.103 259.581 151.47 259.006 152.67C258.43 153.87 257.441 154.822 256.22 155.35C255.89 155.48 255.5 155.62 255.37 155.95C255.24 156.28 255.44 156.67 255.6 157.01C255.828 157.548 255.945 158.127 255.944 158.712C255.943 159.297 255.824 159.875 255.594 160.413C255.364 160.95 255.029 161.436 254.607 161.841C254.186 162.246 253.687 162.562 253.14 162.77C253.532 163.063 253.852 163.441 254.077 163.876C254.301 164.311 254.424 164.792 254.435 165.281C254.447 165.77 254.347 166.256 254.144 166.701C253.94 167.146 253.638 167.539 253.26 167.85C252.93 168.09 252.49 168.38 252.58 168.78C252.624 168.932 252.707 169.07 252.82 169.18C253.687 169.99 254.304 171.031 254.6 172.18C254.722 172.766 254.613 173.377 254.297 173.885C253.98 174.394 253.48 174.761 252.9 174.91C253.257 175.13 253.566 175.421 253.807 175.765C254.048 176.109 254.215 176.499 254.3 176.91C254.38 177.74 252.91 179.6 252.1 179.37C251.76 179.27 247.35 177.51 247.35 177.51C244.35 174.04 247.42 169.69 247.35 165.1C247.333 160.483 248.395 155.925 250.45 151.79C251.244 150.025 252.27 148.374 253.5 146.88C254.999 145.256 256.676 143.807 258.5 142.56C260.726 140.732 263.236 139.28 265.93 138.26C271.03 136.61 276.58 138.05 281.61 139.89C283.547 140.52 285.39 141.408 287.09 142.53C289.021 144.022 290.673 145.843 291.97 147.91C294.04 150.764 295.497 154.016 296.25 157.46" fill="#263238"/>
<path d="M298 155.55C297.852 155.188 297.65 154.851 297.4 154.55C297.17 154.24 296.85 153.9 296.54 153.44C296.186 152.914 295.95 152.317 295.85 151.69C295.73 150.906 295.68 150.113 295.7 149.32C295.724 148.36 295.62 147.402 295.39 146.47C295.086 145.404 294.569 144.41 293.87 143.55C293.487 143.081 293.051 142.658 292.57 142.29C292.06 141.916 291.521 141.582 290.96 141.29C290.377 141 289.846 140.615 289.39 140.15C288.961 139.623 288.605 139.041 288.33 138.42C287.663 137.098 286.766 135.906 285.68 134.9C284.52 133.804 283.163 132.939 281.68 132.35C280.908 132.045 280.108 131.821 279.29 131.68C278.443 131.548 277.583 131.521 276.73 131.6C276.296 131.646 275.866 131.716 275.44 131.81C275.02 131.91 274.6 132.04 274.18 132.15C273.347 132.398 272.473 132.472 271.61 132.37C270.73 132.27 269.86 132.03 268.95 131.88C267.099 131.573 265.211 131.573 263.36 131.88C262.41 132.036 261.479 132.287 260.58 132.63C258.713 133.318 257.108 134.573 255.99 136.22L255.68 136.72L255.82 136.65C254.373 136.476 252.905 136.595 251.505 137C250.104 137.406 248.8 138.089 247.67 139.01C245.438 140.715 243.966 143.229 243.57 146.01L243.64 145.9C242.523 146.522 241.445 147.21 240.41 147.96C239.405 148.696 238.541 149.607 237.86 150.65C237.219 151.677 236.873 152.86 236.86 154.07C236.834 155.24 237.26 156.376 238.05 157.24V157C236.868 158.443 236.228 160.254 236.24 162.12C236.211 163.787 236.7 165.422 237.64 166.8C237.849 167.121 238.087 167.422 238.35 167.7C238.61 167.954 238.857 168.221 239.09 168.5C239.299 168.77 239.443 169.085 239.51 169.42C239.556 169.751 239.576 170.086 239.57 170.42C239.555 171.645 239.689 172.867 239.97 174.06C240.184 175.025 240.585 175.939 241.15 176.75C241.574 177.35 242.132 177.843 242.78 178.19C243.3 178.47 243.78 178.56 244.01 178.72C244.145 178.788 244.27 178.876 244.38 178.98C244.286 178.859 244.166 178.76 244.03 178.69C243.77 178.52 243.32 178.41 242.81 178.12C242.182 177.773 241.644 177.283 241.24 176.69C240.694 175.885 240.31 174.982 240.11 174.03C239.841 172.846 239.714 171.634 239.73 170.42C239.741 170.086 239.724 169.751 239.68 169.42C239.62 169.053 239.465 168.708 239.23 168.42C239 168.132 238.752 167.859 238.49 167.6C238.239 167.324 238.008 167.03 237.8 166.72C236.896 165.37 236.428 163.775 236.46 162.15C236.443 160.327 237.069 158.556 238.23 157.15L238.3 157.07L238.23 156.99C237.484 156.171 237.083 155.097 237.11 153.99C237.127 152.831 237.455 151.698 238.06 150.71C238.725 149.696 239.569 148.812 240.55 148.1C241.579 147.369 242.651 146.701 243.76 146.1H243.82V146C244.218 143.31 245.654 140.884 247.82 139.24C248.919 138.343 250.188 137.677 251.551 137.282C252.913 136.887 254.341 136.77 255.75 136.94H255.85V136.85C255.95 136.69 256.05 136.53 256.16 136.37C257.241 134.775 258.793 133.558 260.6 132.89C261.482 132.55 262.397 132.302 263.33 132.15C264.246 132.006 265.172 131.935 266.1 131.94C267.012 131.947 267.922 132.031 268.82 132.19C269.72 132.33 270.59 132.57 271.5 132.67C271.949 132.715 272.401 132.715 272.85 132.67C273.297 132.626 273.739 132.539 274.17 132.41C274.6 132.3 275.01 132.17 275.43 132.07C275.842 131.978 276.26 131.911 276.68 131.87C277.506 131.79 278.339 131.81 279.16 131.93C279.961 132.066 280.746 132.287 281.5 132.59C282.945 133.168 284.268 134.013 285.4 135.08C286.462 136.067 287.346 137.231 288.01 138.52C288.298 139.158 288.668 139.757 289.11 140.3C289.585 140.777 290.136 141.172 290.74 141.47C291.296 141.761 291.827 142.095 292.33 142.47C292.804 142.824 293.233 143.234 293.61 143.69C294.302 144.526 294.812 145.497 295.11 146.54C295.343 147.455 295.454 148.396 295.44 149.34C295.429 150.144 295.49 150.947 295.62 151.74C295.735 152.375 295.984 152.979 296.35 153.51C296.67 153.97 297 154.31 297.23 154.6C297.417 154.82 297.588 155.054 297.74 155.3L298 155.55Z" fill="#464D7A"/>
<path d="M260.23 134.29C260.23 134.29 260.47 134.12 260.92 133.85C261.555 133.477 262.248 133.213 262.97 133.07C264.035 132.844 265.14 132.91 266.17 133.26C267.426 133.702 268.51 134.527 269.27 135.62C269.497 135.931 269.688 136.266 269.84 136.62C269.913 136.777 269.95 136.947 269.95 137.12C269.95 137.293 269.913 137.463 269.84 137.62L269.63 137.97L270.01 137.83C270.985 137.473 272.061 137.508 273.01 137.93C273.763 138.273 274.387 138.848 274.79 139.57C275.057 140.049 275.23 140.576 275.3 141.12C275.35 141.5 275.3 141.72 275.35 141.72C275.4 141.72 275.35 141.67 275.35 141.56C275.361 141.41 275.361 141.26 275.35 141.11C275.311 140.389 275.077 139.693 274.674 139.094C274.271 138.496 273.713 138.017 273.06 137.71C272.051 137.242 270.899 137.188 269.85 137.56L270.03 137.77C270.122 137.573 270.169 137.358 270.169 137.14C270.169 136.922 270.122 136.707 270.03 136.51C269.872 136.119 269.671 135.746 269.43 135.4C268.638 134.256 267.498 133.397 266.18 132.95C265.101 132.594 263.945 132.546 262.84 132.81C262.104 132.974 261.405 133.276 260.78 133.7C260.56 133.85 260.4 133.98 260.29 134.07C260.18 134.16 260.22 134.28 260.23 134.29Z" fill="#464D7A"/>
<path d="M245.52 146.62C245.627 146.741 245.752 146.845 245.89 146.93C246.249 147.19 246.635 147.411 247.04 147.59C247.666 147.879 248.35 148.023 249.04 148.01C249.904 148.004 250.735 147.676 251.37 147.09H251.16C251.26 147.21 251.36 147.34 251.47 147.46C251.58 147.58 251.71 147.7 251.83 147.81C252.491 148.376 253.267 148.793 254.104 149.033C254.941 149.273 255.819 149.33 256.68 149.2C257.197 149.116 257.699 148.957 258.17 148.73C258.342 148.647 258.503 148.543 258.65 148.42C258.008 148.69 257.337 148.885 256.65 149C255.906 149.081 255.154 149.026 254.43 148.84C253.542 148.627 252.718 148.201 252.03 147.6L251.68 147.27L251.39 146.92L251.28 146.79L251.17 146.9C250.587 147.441 249.826 147.751 249.03 147.77C248.387 147.792 247.747 147.68 247.15 147.44C246.09 147 245.55 146.57 245.52 146.62Z" fill="#464D7A"/>
<path d="M241.18 156C241.18 156 241.18 156.06 241.18 156.17C241.239 156.332 241.323 156.484 241.43 156.62C241.845 157.112 242.431 157.43 243.07 157.51C244.008 157.6 244.952 157.419 245.79 156.99C246.27 156.77 246.79 156.55 247.26 156.26C247.814 155.98 248.25 155.512 248.49 154.94L248.54 154.78L248.32 154.87C249.24 155.509 250.252 156.004 251.32 156.34C252.208 156.61 253.153 156.627 254.05 156.39C254.652 156.237 255.203 155.93 255.65 155.5C255.769 155.381 255.876 155.25 255.97 155.11C256.03 155.02 256.06 154.96 256.05 154.96C256.04 154.96 255.89 155.14 255.57 155.42C255.112 155.801 254.571 156.068 253.99 156.2C253.129 156.393 252.232 156.356 251.39 156.09C250.355 155.746 249.375 155.254 248.48 154.63L248.32 154.52L248.26 154.72V154.85C248.039 155.355 247.65 155.768 247.16 156.02C246.69 156.3 246.16 156.52 245.73 156.74C244.936 157.166 244.04 157.364 243.14 157.31C242.538 157.253 241.976 156.979 241.56 156.54C241.422 156.369 241.295 156.188 241.18 156Z" fill="#464D7A"/>
<path d="M228 122.53C228 122.53 228.16 122.53 228.46 122.53C228.889 122.616 229.283 122.828 229.59 123.14C230.08 123.61 230.391 124.236 230.47 124.91C230.558 125.795 230.511 126.689 230.33 127.56V127.71H230.5C231.686 127.576 232.883 127.832 233.91 128.44C234.487 128.774 234.979 129.238 235.345 129.795C235.712 130.352 235.943 130.988 236.02 131.65C236.095 132.254 236.031 132.866 235.834 133.442C235.636 134.017 235.31 134.54 234.88 134.97L234.58 135.25H234.99C235.675 135.194 236.364 135.279 237.014 135.501C237.665 135.723 238.262 136.077 238.77 136.54C239.578 137.29 240.101 138.297 240.25 139.39C240.353 140.106 240.302 140.835 240.1 141.53C239.96 142.02 239.83 142.27 239.85 142.28C239.87 142.29 239.85 142.23 239.96 142.11C240.056 141.935 240.133 141.751 240.19 141.56C240.501 140.666 240.548 139.702 240.326 138.782C240.105 137.862 239.624 137.024 238.94 136.37C238.409 135.868 237.779 135.484 237.089 135.243C236.4 135.002 235.668 134.909 234.94 134.97L235.05 135.21C235.761 134.48 236.198 133.527 236.288 132.512C236.377 131.497 236.113 130.483 235.54 129.64C235.144 129.069 234.629 128.592 234.03 128.24C232.949 127.609 231.692 127.349 230.45 127.5L230.58 127.64C230.75 126.747 230.784 125.833 230.68 124.93C230.569 124.217 230.216 123.563 229.68 123.08C229.344 122.765 228.917 122.565 228.46 122.51C228.344 122.5 228.226 122.5 228.11 122.51C228.05 122.52 228 122.52 228 122.53Z" fill="#464D7A"/>
<path d="M212.56 144.77L212.72 144.85L213.22 145.03C213.87 145.216 214.544 145.307 215.22 145.3C216.251 145.304 217.272 145.096 218.22 144.69C219.439 144.182 220.499 143.357 221.29 142.3H221C221.524 143.045 222.206 143.665 222.998 144.114C223.79 144.564 224.672 144.832 225.58 144.9C226.556 144.951 227.524 144.694 228.347 144.167C229.17 143.64 229.808 142.868 230.17 141.96H230C230.289 142.574 230.734 143.102 231.29 143.49C231.792 143.836 232.351 144.093 232.94 144.25C233.924 144.483 234.947 144.504 235.94 144.31C236.573 144.198 237.198 144.045 237.81 143.85C238.032 143.794 238.246 143.713 238.45 143.61L237.78 143.76C237.167 143.923 236.547 144.053 235.92 144.15C234.947 144.301 233.953 144.25 233 144C232.41 143.857 231.858 143.588 231.382 143.212C230.905 142.836 230.516 142.361 230.24 141.82L230.1 141.51L229.99 141.83C229.645 142.677 229.044 143.396 228.272 143.887C227.5 144.378 226.594 144.617 225.68 144.57C224.813 144.505 223.972 144.25 223.215 143.823C222.458 143.396 221.804 142.808 221.3 142.1L221.19 141.95L221.08 142.1C220.325 143.127 219.31 143.935 218.14 144.44C217.222 144.846 216.234 145.07 215.23 145.1C214.329 145.118 213.43 145.007 212.56 144.77Z" fill="#464D7A"/>
<path d="M223.82 158C223.852 158.061 223.896 158.116 223.95 158.16C224.115 158.284 224.314 158.354 224.52 158.36C225.249 158.355 225.966 158.173 226.61 157.83C227.588 157.34 228.387 156.552 228.89 155.58C229.509 154.387 229.652 153.004 229.29 151.71L229.09 151.88C230.347 152.334 231.717 152.376 233 152C234.042 151.722 235.007 151.209 235.82 150.5C236.366 150.029 236.844 149.483 237.24 148.88C237.398 148.67 237.522 148.438 237.61 148.19C237.063 148.985 236.418 149.707 235.69 150.34C234.884 151.004 233.942 151.482 232.93 151.74C231.694 152.059 230.39 151.982 229.2 151.52L228.94 151.42L229.01 151.7C229.351 152.925 229.226 154.232 228.66 155.37C228.182 156.298 227.437 157.061 226.52 157.56C225.905 157.904 225.222 158.109 224.52 158.16C224.275 158.188 224.028 158.132 223.82 158Z" fill="#464D7A"/>
<path d="M249.08 121.12C249.485 122.04 249.719 123.026 249.77 124.03C249.808 125.629 249.265 127.187 248.243 128.416C247.221 129.646 245.789 130.464 244.21 130.72H244.04L244.1 130.88C244.809 132.648 244.904 134.602 244.37 136.43C244.284 136.734 244.177 137.031 244.05 137.32C244.01 137.425 243.945 137.52 243.862 137.596C243.779 137.673 243.679 137.729 243.57 137.76C243.501 137.773 243.43 137.772 243.361 137.757C243.292 137.741 243.227 137.712 243.17 137.67C243.1 137.61 243.08 137.56 243.07 137.56C243.06 137.56 243.07 137.62 243.14 137.71C243.197 137.767 243.266 137.809 243.343 137.834C243.42 137.858 243.501 137.864 243.58 137.85C243.709 137.829 243.831 137.776 243.934 137.695C244.037 137.615 244.118 137.51 244.17 137.39C244.32 137.102 244.444 136.8 244.54 136.49C244.82 135.688 244.975 134.849 245 134C245.009 132.915 244.808 131.839 244.41 130.83L244.3 131.02C245.09 130.892 245.851 130.628 246.55 130.24C247.763 129.572 248.743 128.55 249.36 127.31C249.766 126.463 249.989 125.541 250.017 124.602C250.044 123.663 249.875 122.729 249.52 121.86C249.414 121.62 249.324 121.44 249.25 121.32C249.203 121.246 249.145 121.179 249.08 121.12Z" fill="#464D7A"/>
<path d="M276 184C276.27 183.92 276.66 185.74 278.5 186.69C280.34 187.64 282.23 187.03 282.3 187.28C282.35 187.38 281.94 187.72 281.13 187.92C280.066 188.162 278.952 188.024 277.98 187.53C277.04 187.062 276.321 186.243 275.98 185.25C275.79 184.52 275.9 184 276 184Z" fill="#263238"/>
<path d="M295.348 153.922L256.401 157.604C252.74 157.95 250.052 161.199 250.398 164.861L251.125 172.557C251.471 176.219 254.721 178.907 258.382 178.561L297.329 174.879C300.991 174.533 303.679 171.284 303.332 167.622L302.605 159.926C302.259 156.264 299.01 153.576 295.348 153.922Z" fill="#E0E0E0"/>
<path d="M246 177.54C246 177.54 244.85 176.15 246.79 171.76C249.08 166.54 251.13 161.76 251.13 161.76L256.4 178.34L252 176.17L246 177.54Z" fill="#E0E0E0"/>
<path d="M296.501 152.202L257.555 155.883C253.893 156.23 251.205 159.479 251.551 163.141L252.279 170.836C252.625 174.498 255.874 177.186 259.536 176.84L298.482 173.158C302.144 172.812 304.832 169.563 304.486 165.901L303.758 158.206C303.412 154.544 300.163 151.856 296.501 152.202Z" fill="#464D7A"/>
<path d="M298.48 173.15C298.48 173.15 298.95 173.09 299.81 172.83C301.051 172.412 302.145 171.645 302.96 170.62C303.542 169.884 303.959 169.032 304.18 168.12C304.309 167.603 304.376 167.073 304.38 166.54C304.38 165.99 304.29 165.4 304.23 164.8C304.11 163.58 303.98 162.29 303.85 160.91C303.78 160.23 303.71 159.52 303.64 158.79C303.599 158.057 303.458 157.334 303.22 156.64C302.674 155.158 301.608 153.924 300.22 153.17C299.491 152.775 298.694 152.52 297.87 152.42C296.999 152.363 296.124 152.4 295.26 152.53L283.81 153.63L257.55 156.14C256.439 156.247 255.375 156.642 254.463 157.285C253.551 157.929 252.823 158.799 252.35 159.81C251.886 160.795 251.686 161.884 251.77 162.97C251.87 164.09 251.97 165.2 252.07 166.29C252.17 167.38 252.28 168.48 252.38 169.56C252.405 170.607 252.598 171.644 252.95 172.63C253.331 173.558 253.923 174.384 254.68 175.042C255.438 175.7 256.338 176.172 257.31 176.42C258.26 176.647 259.246 176.684 260.21 176.53L263.12 176.26L268.69 175.75L278.69 174.83L293.16 173.55L297.09 173.23L298.09 173.16C298.206 173.145 298.324 173.145 298.44 173.16L298.09 173.22L297.09 173.34L293.17 173.76L278.72 175.21L268.72 176.21L263.15 176.75L260.25 177.03C259.229 177.188 258.187 177.15 257.18 176.92C256.134 176.655 255.164 176.148 254.348 175.442C253.532 174.735 252.892 173.848 252.48 172.85C252.105 171.816 251.9 170.729 251.87 169.63C251.76 168.56 251.66 167.47 251.56 166.37C251.46 165.27 251.35 164.16 251.25 163.04C251.159 161.866 251.372 160.688 251.87 159.62C252.375 158.52 253.16 157.572 254.146 156.87C255.132 156.168 256.285 155.737 257.49 155.62L283.75 153.16L295.21 152.1C296.133 151.955 297.069 151.921 298 152C299.263 152.154 300.457 152.658 301.449 153.455C302.44 154.252 303.189 155.31 303.61 156.51C303.859 157.232 304 157.987 304.03 158.75C304.1 159.48 304.16 160.18 304.23 160.87C304.35 162.25 304.46 163.54 304.57 164.76C304.63 165.36 304.69 165.95 304.7 166.53C304.692 167.084 304.615 167.635 304.47 168.17C304.182 169.29 303.609 170.316 302.806 171.149C302.004 171.981 300.999 172.592 299.89 172.92C299.434 173.064 298.959 173.141 298.48 173.15Z" fill="#263238"/>
<path d="M267.36 170.34C268.733 168.233 270.257 166.227 271.92 164.34C273.451 162.335 275.122 160.44 276.92 158.67C275.535 160.772 274.008 162.777 272.35 164.67C270.817 166.671 269.15 168.565 267.36 170.34Z" fill="#263238"/>
<path d="M270.8 171.44C272.499 168.907 274.343 166.473 276.32 164.15C278.163 161.704 280.146 159.367 282.26 157.15C280.552 159.68 278.706 162.113 276.73 164.44C274.888 166.884 272.908 169.222 270.8 171.44Z" fill="#263238"/>
<path d="M278 170.15C278.789 168.581 279.727 167.091 280.8 165.7C281.74 164.216 282.822 162.826 284.03 161.55C283.248 163.123 282.31 164.614 281.23 166C280.293 167.487 279.211 168.877 278 170.15Z" fill="#263238"/>
<path d="M373.5 173.46C372.9 180.46 369.41 189.46 369.41 189.46L353.82 191.4C353.82 191.4 346.5 179.01 344.48 174.11C343.984 172.795 343.194 171.612 342.17 170.65C341.754 170.267 341.489 169.749 341.421 169.188C341.353 168.627 341.486 168.06 341.798 167.588C342.109 167.117 342.578 166.772 343.121 166.615C343.664 166.457 344.244 166.498 344.76 166.73C345.909 167.615 346.92 168.667 347.76 169.85C348.829 171.424 349.804 173.06 350.68 174.75C351.619 173.24 352.179 171.524 352.31 169.75C352.4 166.88 350.85 156.03 350.78 153.04C350.71 150.05 352.49 149.73 354.14 150.31C355.79 150.89 355.54 163.64 357.03 164.16C357.03 164.16 359.56 163 361.03 163.64C361.982 164.082 362.839 164.707 363.55 165.48C363.55 165.48 365.06 163.77 366.55 164.13C367.677 164.552 368.64 165.323 369.3 166.33C369.3 166.33 370.69 164.73 371.76 165.21C372.83 165.69 374 168.22 373.5 173.46Z" fill="#CC675D"/>
<path d="M352.76 189.9C352.55 190.61 357.38 200.43 352.76 214.07C351.76 216.94 351.88 217.33 351.88 217.33L363.18 222L370.89 218L369.1 188.81L352.76 189.9Z" fill="#CC675D"/>
<path d="M365.43 183.27C365.34 183.27 365.06 182.27 364.35 180.68C363.938 179.772 363.399 178.927 362.75 178.17C361.942 177.253 360.907 176.563 359.75 176.17C357.6 175.565 355.33 175.523 353.16 176.05C352.748 176.164 352.309 176.143 351.91 175.99C351.625 175.845 351.386 175.623 351.22 175.35C351.06 175.145 350.95 174.905 350.9 174.65C350.9 174.65 351.08 174.87 351.38 175.23C351.546 175.447 351.767 175.616 352.02 175.72C352.365 175.829 352.735 175.829 353.08 175.72C355.312 175.062 357.687 175.062 359.92 175.72C361.151 176.133 362.246 176.873 363.09 177.86C363.755 178.666 364.285 179.574 364.66 180.55C364.924 181.198 365.135 181.867 365.29 182.55C365.381 182.779 365.428 183.023 365.43 183.27Z" fill="#9C4741"/>
<path d="M363.14 165.63C363.257 165.878 363.321 166.146 363.33 166.42C363.423 167.16 363.439 167.907 363.38 168.65C363.288 169.761 363.035 170.852 362.63 171.89C362.411 172.528 362.071 173.119 361.63 173.63C361.369 173.929 361.026 174.144 360.643 174.247C360.26 174.35 359.855 174.337 359.48 174.21C358.77 173.907 358.209 173.335 357.92 172.62C357.661 172.014 357.46 171.384 357.32 170.74C357.063 169.662 356.932 168.558 356.93 167.45C356.927 166.705 356.994 165.962 357.13 165.23C357.149 164.958 357.224 164.692 357.35 164.45C357.44 164.45 357.22 165.6 357.3 167.45C357.351 168.527 357.512 169.596 357.78 170.64C357.934 171.249 358.138 171.845 358.39 172.42C358.624 173.007 359.081 173.478 359.66 173.73C359.942 173.826 360.247 173.834 360.534 173.754C360.822 173.674 361.078 173.509 361.27 173.28C361.68 172.825 361.999 172.295 362.21 171.72C362.616 170.726 362.891 169.684 363.03 168.62C363.25 166.79 363.05 165.64 363.14 165.63Z" fill="#9C4741"/>
<path d="M369.12 166.17C369.203 166.453 369.247 166.745 369.25 167.04C369.324 167.831 369.354 168.626 369.34 169.42C369.333 170.615 369.144 171.802 368.78 172.94C368.566 173.639 368.204 174.283 367.72 174.83C367.45 175.139 367.118 175.387 366.746 175.559C366.374 175.731 365.97 175.824 365.56 175.83C365.132 175.827 364.713 175.706 364.35 175.48C363.988 175.238 363.711 174.888 363.56 174.48C363.306 173.8 363.191 173.076 363.22 172.35C363.22 171.07 363.22 169.88 363.16 168.83C363.098 167.75 363.122 166.667 363.23 165.59C363.416 166.657 363.516 167.737 363.53 168.82C363.58 169.87 363.64 171.05 363.7 172.33C363.688 172.991 363.796 173.648 364.02 174.27C364.146 174.572 364.361 174.829 364.636 175.007C364.91 175.186 365.232 175.277 365.56 175.27C365.898 175.27 366.232 175.199 366.54 175.061C366.849 174.923 367.125 174.722 367.35 174.47C367.794 173.98 368.134 173.405 368.35 172.78C368.716 171.684 368.931 170.544 368.99 169.39C369.08 167.42 369 166.17 369.12 166.17Z" fill="#9C4741"/>
<path d="M373.75 172C373.8 172 373.91 172.53 373.56 173.31C373.329 173.815 372.974 174.254 372.528 174.586C372.083 174.918 371.56 175.133 371.01 175.21C370.685 175.261 370.353 175.223 370.048 175.1C369.743 174.977 369.478 174.773 369.28 174.51C368.989 174.09 368.832 173.591 368.83 173.08C368.79 172.637 368.869 172.192 369.06 171.79C369.15 171.79 369.11 172.3 369.2 173.05C369.245 173.471 369.404 173.872 369.66 174.21C369.812 174.398 370.012 174.542 370.239 174.627C370.466 174.711 370.712 174.733 370.95 174.69C371.423 174.619 371.874 174.442 372.271 174.174C372.667 173.906 372.998 173.553 373.24 173.14C373.62 172.5 373.66 172 373.75 172Z" fill="#9C4741"/>
<path d="M307.55 265.66L310.9 213.56C302.12 209.94 285 209.77 285 209.77C285 209.77 284.69 219.46 271.33 220.05C256.78 220.69 254.85 211.65 254.85 211.65L227.93 217.73C225.257 218.985 222.81 220.675 220.69 222.73L228 269.84L235 304L224.08 327C224.08 327 253.88 336.91 270.94 337.79C288 338.67 312.88 319.95 312.88 319.95L304.61 301.95L307.55 265.66Z" fill="#6D7BD3"/>
<path d="M221.48 222L191.1 246.32L172.58 247.07C172.58 247.07 168 275 171 278.36C174 281.72 176.13 285.03 182.62 284.81C189.11 284.59 189.54 283.09 198.89 276.32C208.48 269.38 231.71 251.86 231.71 251.86L221.48 222Z" fill="#6D7BD3"/>
<path d="M308.78 213.2C308.78 213.2 320.78 215.2 329.89 216.87C336.04 217.969 342.251 218.687 348.49 219.02V215.13L373.39 213.05C373.39 213.05 375.17 241.67 371.06 247.61C366.95 253.55 307.11 249 307.11 249L308.78 213.2Z" fill="#6D7BD3"/>
<path d="M310.51 224.86C310.65 224.86 310.23 230.44 309.57 237.29C308.91 244.14 308.26 249.69 308.12 249.67C307.98 249.65 308.39 244.09 309.05 237.24C309.71 230.39 310.36 224.85 310.51 224.86Z" fill="#263238"/>
<path d="M222.11 237.6C222.25 237.6 223.49 242.77 224.87 249.22C226.25 255.67 227.26 260.91 227.11 260.94C226.96 260.97 225.74 255.77 224.36 249.33C222.98 242.89 222 237.63 222.11 237.6Z" fill="#263238"/>
<path d="M354.06 238.48C353.845 238.257 353.663 238.005 353.52 237.73C353.2 237.24 352.78 236.49 352.3 235.55C351.066 233.077 350.1 230.479 349.42 227.8C348.739 225.123 348.35 222.381 348.26 219.62C348.26 218.57 348.26 217.71 348.26 217.12C348.25 216.812 348.291 216.505 348.38 216.21C348.46 216.21 348.45 217.51 348.61 219.61C348.993 225.066 350.347 230.41 352.61 235.39C353.5 237.3 354.13 238.44 354.06 238.48Z" fill="#263238"/>
<path d="M192.12 270.37C192.03 270.37 192.38 269.02 192.74 266.84C193.676 261.164 193.431 255.357 192.02 249.78C191.48 247.64 191.02 246.35 191.1 246.32C191.275 246.59 191.413 246.883 191.51 247.19C191.842 248.004 192.129 248.835 192.37 249.68C194.003 255.28 194.254 261.192 193.1 266.91C192.933 267.771 192.719 268.622 192.46 269.46C192.383 269.776 192.269 270.081 192.12 270.37Z" fill="#263238"/>
</svg>
