<svg width="90" height="113" viewBox="0 0 90 113" fill="none" xmlns="http://www.w3.org/2000/svg">
<path d="M17.459 50.8317C21.433 53.2927 24.135 56.8867 25.566 61.6147C26.989 66.3337 29.399 70.0367 32.797 72.7197C32.355 75.5787 33.009 78.2397 34.759 80.6967L34.775 80.7147C36.878 83.9917 42.488 84.9097 51.605 83.4707C60.937 81.9867 65.601 78.5707 65.598 73.2247C65.695 70.7617 65.564 68.9667 65.208 67.8417C65.095 67.4547 64.965 67.1097 64.818 66.8027C65.183 66.3597 65.54 65.9007 65.888 65.4257L65.905 65.4097C66.517 64.5817 67.187 63.4527 67.915 62.0187V62.0367C70.637 56.7747 71.982 52.1207 71.953 48.0757C71.951 43.5827 71.269 39.9357 69.91 37.1307V37.1147C67.941 33.0427 64.871 31.0207 60.701 31.0507C60.373 31.0477 60.021 31.0857 59.646 31.1637C58.067 29.4527 56.267 28.6247 54.247 28.6847C53.56 28.6567 52.642 28.8767 51.491 29.3487L51.474 29.3657C51.075 29.5347 50.707 29.7407 50.371 29.9817C49.206 29.2837 47.915 28.9377 46.496 28.9437C46.13 28.9437 45.752 28.9767 45.361 29.0417C45.256 28.0257 45.213 27.0257 45.231 26.0417C45.231 26.0237 45.231 26.0087 45.231 25.9927C45.23 24.4437 45.36 22.9267 45.621 21.4367C46.866 14.7887 45.5 10.9467 41.518 9.90872C37.675 8.60072 34.671 9.88172 32.503 13.7507H32.52C30.691 16.9267 29.859 20.7587 30.023 25.2457C30.155 29.4587 30.825 33.7817 32.033 38.2177V38.2007C32.789 41.0107 33.297 43.4797 33.557 45.6107C30.887 41.6857 27.779 38.8157 24.235 37.0017L24.251 37.0177C19.941 34.7657 16.381 35.5877 13.566 39.4827V39.4667C10.396 43.4827 11.693 47.2707 17.459 50.8317ZM16.713 41.7697V41.7517C18.223 39.6807 20.131 39.2477 22.437 40.4547L22.454 40.4717C25.479 42.0487 28.134 44.5357 30.415 47.9297C31.996 50.2847 33.228 51.5647 34.112 51.7737C35.499 52.3007 36.531 51.9127 37.209 50.6057C37.511 50.1447 37.656 49.3517 37.647 48.2227V48.2047C37.612 45.3147 36.996 41.6447 35.798 37.1977V37.1807C34.672 33.0547 34.045 29.0347 33.918 25.1177C33.778 21.4327 34.438 18.2827 35.896 15.6647H35.913C36.987 13.7397 38.458 13.0537 40.322 13.6057C42.051 14.4037 42.542 16.7817 41.798 20.7397V20.7557C41.499 22.4567 41.348 24.1917 41.345 25.9617V25.9927C41.298 28.1747 41.508 30.4337 41.977 32.7697L41.993 32.8197V32.8357C42.002 32.8747 42.013 32.9127 42.026 32.9487C42.395 34.8587 42.936 37.1777 43.647 39.9047C43.781 40.4227 44.078 40.8167 44.539 41.0887C45.004 41.3627 45.496 41.4337 46.015 41.2987C46.533 41.1657 46.927 40.8687 47.199 40.4067C47.473 39.9417 47.544 39.4497 47.41 38.9317C46.808 36.6097 46.333 34.5927 45.983 32.8827C46.162 32.8517 46.335 32.8357 46.502 32.8347C47.532 32.8437 48.43 33.2227 49.193 33.9697L49.242 34.0187C49.356 34.1477 49.471 34.2777 49.583 34.4087C50.513 35.6357 51.355 38.3817 52.112 42.6447C52.21 43.1697 52.479 43.5867 52.923 43.8927C53.361 44.2037 53.842 44.3107 54.366 44.2167C54.891 44.1187 55.307 43.8497 55.614 43.4057C55.923 42.9667 56.031 42.4857 55.938 41.9627C55.171 37.6327 54.274 34.5957 53.247 32.8517C53.66 32.6907 53.995 32.5987 54.252 32.5767C55.471 32.6457 56.552 33.3427 57.495 34.6677C57.563 34.7957 57.644 34.9147 57.738 35.0237C58.507 36.3477 59.155 38.8247 59.683 42.4497C59.767 42.9827 60.026 43.4087 60.462 43.7307C60.888 44.0547 61.363 44.1797 61.888 44.1037C62.419 44.0217 62.846 43.7617 63.169 43.3257C63.492 42.8987 63.617 42.4227 63.542 41.8987C63.124 39.0337 62.622 36.7637 62.034 35.0887C63.944 35.4827 65.404 36.7197 66.412 38.8007V38.7847C67.516 41.1707 68.067 44.2667 68.065 48.0757C68.036 51.5967 66.831 55.6557 64.45 60.2537V60.2697C63.843 61.4627 63.286 62.4047 62.78 63.0897L62.763 63.1057C62.05 64.0767 61.31 64.9687 60.541 65.7817L60.49 65.8297C60.459 65.8647 60.427 65.8957 60.393 65.9277C59.083 67.1977 57.689 68.2617 56.209 69.1207L56.193 69.1387C55.901 69.3167 55.609 69.4827 55.317 69.6407C54.84 69.8967 54.521 70.2797 54.361 70.7907C54.204 71.3027 54.253 71.7947 54.507 72.2677C54.762 72.7467 55.146 73.0647 55.658 73.2247C56.168 73.3787 56.66 73.3297 57.134 73.0787C57.49 72.8897 57.847 72.6897 58.204 72.4787L58.187 72.4947C59.392 71.7877 60.548 70.9657 61.657 70.0297C61.739 70.8207 61.756 71.8307 61.706 73.0627C61.326 76.3617 57.754 78.5447 50.989 79.6117C43.99 80.7207 39.639 80.3267 37.936 78.4277L37.919 78.4117C37.061 77.2007 36.612 75.9157 36.573 74.5527C39.761 75.5177 42.912 75.6697 46.025 75.0077C46.546 74.8947 46.951 74.6147 47.242 74.1637C47.537 73.7147 47.629 73.2277 47.517 72.7047C47.406 72.1847 47.125 71.7787 46.674 71.4877C46.224 71.1947 45.737 71.1027 45.214 71.2127C42.162 71.8437 39.066 71.5077 35.924 70.2087C32.772 67.9337 30.562 64.6907 29.292 60.4797C27.567 54.7887 24.303 50.4697 19.499 47.5247C16.433 45.6287 15.503 43.7087 16.713 41.7697Z" fill="#6D7BD3"/>
<path d="M74.4352 32.528C74.6732 33.011 75.0462 33.341 75.5532 33.516C76.0572 33.684 76.5492 33.647 77.0282 33.403C77.5132 33.165 77.8422 32.792 78.0172 32.284C78.1852 31.781 78.1472 31.29 77.9042 30.809C73.4082 21.754 66.9332 16.262 58.4802 14.336L62.3062 10.834C62.7022 10.465 62.9132 10.011 62.9392 9.472C62.9642 8.938 62.7972 8.473 62.4362 8.077C62.0682 7.68 61.6142 7.469 61.0742 7.445C60.5422 7.419 60.0782 7.587 59.6792 7.947L52.9352 14.125L52.8702 14.173C52.6492 14.379 52.4872 14.611 52.3842 14.87C52.3712 14.899 52.3622 14.932 52.3522 14.968C52.3382 15.004 52.3282 15.042 52.3192 15.081C52.2732 15.222 52.2472 15.373 52.2392 15.535C52.2302 15.735 52.2532 15.923 52.3032 16.103C52.3242 16.192 52.3522 16.277 52.3842 16.363L52.4012 16.395L55.6922 24.405C55.8982 24.9 56.2502 25.251 56.7472 25.458C57.2442 25.665 57.7412 25.665 58.2382 25.458C58.7332 25.253 59.0842 24.901 59.2922 24.405C59.4982 23.907 59.4982 23.409 59.2922 22.913L57.2982 18.065C64.7562 19.728 70.4692 24.547 74.4352 32.528Z" fill="#6D7BD3"/>
</svg>
