<svg width="90" height="113" viewBox="0 0 90 113" fill="none" xmlns="http://www.w3.org/2000/svg">
<path d="M17.459 50.832C21.433 53.293 24.135 56.887 25.566 61.615C26.989 66.334 29.399 70.037 32.797 72.72C32.355 75.579 33.009 78.24 34.759 80.697L34.775 80.715C36.878 83.992 42.488 84.91 51.605 83.471C60.937 81.987 65.601 78.571 65.598 73.225C65.695 70.762 65.564 68.967 65.208 67.842C65.095 67.455 64.965 67.11 64.818 66.803C65.183 66.36 65.54 65.901 65.888 65.426L65.905 65.41C66.517 64.582 67.187 63.453 67.915 62.019V62.037C70.637 56.775 71.982 52.121 71.953 48.076C71.951 43.583 71.269 39.936 69.91 37.131V37.115C67.941 33.043 64.871 31.021 60.701 31.051C60.373 31.048 60.021 31.086 59.646 31.164C58.067 29.453 56.267 28.625 54.247 28.685C53.56 28.657 52.642 28.877 51.491 29.349L51.474 29.366C51.075 29.535 50.707 29.741 50.371 29.982C49.206 29.284 47.915 28.938 46.496 28.944C46.13 28.944 45.752 28.977 45.361 29.042C45.256 28.026 45.213 27.026 45.231 26.042C45.231 26.024 45.231 26.009 45.231 25.993C45.23 24.444 45.36 22.927 45.621 21.437C46.866 14.789 45.5 10.947 41.518 9.90899C37.675 8.60099 34.671 9.88199 32.503 13.751H32.52C30.691 16.927 29.859 20.759 30.023 25.246C30.155 29.459 30.825 33.782 32.033 38.218V38.201C32.789 41.011 33.297 43.48 33.557 45.611C30.887 41.686 27.779 38.816 24.235 37.002L24.251 37.018C19.941 34.766 16.381 35.588 13.566 39.483V39.467C10.396 43.483 11.693 47.271 17.459 50.832ZM16.713 41.77V41.752C18.223 39.681 20.131 39.248 22.437 40.455L22.454 40.472C25.479 42.049 28.134 44.536 30.415 47.93C31.996 50.285 33.228 51.565 34.112 51.774C35.499 52.301 36.531 51.913 37.209 50.606C37.511 50.145 37.656 49.352 37.647 48.223V48.205C37.612 45.315 36.996 41.645 35.798 37.198V37.181C34.672 33.055 34.045 29.035 33.918 25.118C33.778 21.433 34.438 18.283 35.896 15.665H35.913C36.987 13.74 38.458 13.054 40.322 13.606C42.051 14.404 42.542 16.782 41.798 20.74V20.756C41.499 22.457 41.348 24.192 41.345 25.962V25.993C41.298 28.175 41.508 30.434 41.977 32.77L41.993 32.82V32.836C42.002 32.875 42.013 32.913 42.026 32.949C42.395 34.859 42.936 37.178 43.647 39.905C43.781 40.423 44.078 40.817 44.539 41.089C45.004 41.363 45.496 41.434 46.015 41.299C46.533 41.166 46.927 40.869 47.199 40.407C47.473 39.942 47.544 39.45 47.41 38.932C46.808 36.61 46.333 34.593 45.983 32.883C46.162 32.852 46.335 32.836 46.502 32.835C47.532 32.844 48.43 33.223 49.193 33.97L49.242 34.019C49.356 34.148 49.471 34.278 49.583 34.409C50.513 35.636 51.355 38.382 52.112 42.645C52.21 43.17 52.479 43.587 52.923 43.893C53.361 44.204 53.842 44.311 54.366 44.217C54.891 44.119 55.307 43.85 55.614 43.406C55.923 42.967 56.031 42.486 55.938 41.963C55.171 37.633 54.274 34.596 53.247 32.852C53.66 32.691 53.995 32.599 54.252 32.577C55.471 32.646 56.552 33.343 57.495 34.668C57.563 34.796 57.644 34.915 57.738 35.024C58.507 36.348 59.155 38.825 59.683 42.45C59.767 42.983 60.026 43.409 60.462 43.731C60.888 44.055 61.363 44.18 61.888 44.104C62.419 44.022 62.846 43.762 63.169 43.326C63.492 42.899 63.617 42.423 63.542 41.899C63.124 39.034 62.622 36.764 62.034 35.089C63.944 35.483 65.404 36.72 66.412 38.801V38.785C67.516 41.171 68.067 44.267 68.065 48.076C68.036 51.597 66.831 55.656 64.45 60.254V60.27C63.843 61.463 63.286 62.405 62.78 63.09L62.763 63.106C62.05 64.077 61.31 64.969 60.541 65.782L60.49 65.83C60.459 65.865 60.427 65.896 60.393 65.928C59.083 67.198 57.689 68.262 56.209 69.121L56.193 69.139C55.901 69.317 55.609 69.483 55.317 69.641C54.84 69.897 54.521 70.28 54.361 70.791C54.204 71.303 54.253 71.795 54.507 72.268C54.762 72.747 55.146 73.065 55.658 73.225C56.168 73.379 56.66 73.33 57.134 73.079C57.49 72.89 57.847 72.69 58.204 72.479L58.187 72.495C59.392 71.788 60.548 70.966 61.657 70.03C61.739 70.821 61.756 71.831 61.706 73.063C61.326 76.362 57.754 78.545 50.989 79.612C43.99 80.721 39.639 80.327 37.936 78.428L37.919 78.412C37.061 77.201 36.612 75.916 36.573 74.553C39.761 75.518 42.912 75.67 46.025 75.008C46.546 74.895 46.951 74.615 47.242 74.164C47.537 73.715 47.629 73.228 47.517 72.705C47.406 72.185 47.125 71.779 46.674 71.488C46.224 71.195 45.737 71.103 45.214 71.213C42.162 71.844 39.066 71.508 35.924 70.209C32.772 67.934 30.562 64.691 29.292 60.48C27.567 54.789 24.303 50.47 19.499 47.525C16.433 45.629 15.503 43.709 16.713 41.77Z" fill="#6D7BD3"/>
<path d="M74.4357 32.528C74.6737 33.011 75.0467 33.341 75.5537 33.516C76.0577 33.684 76.5497 33.647 77.0287 33.403C77.5137 33.165 77.8427 32.792 78.0177 32.284C78.1857 31.781 78.1477 31.29 77.9047 30.809C73.4087 21.754 66.9337 16.262 58.4807 14.336L62.3067 10.834C62.7027 10.465 62.9137 10.011 62.9397 9.472C62.9647 8.938 62.7977 8.473 62.4367 8.077C62.0687 7.68 61.6147 7.469 61.0747 7.445C60.5427 7.419 60.0787 7.587 59.6797 7.947L52.9357 14.125L52.8707 14.173C52.6497 14.379 52.4877 14.611 52.3847 14.87C52.3717 14.899 52.3627 14.932 52.3527 14.968C52.3387 15.004 52.3287 15.042 52.3197 15.081C52.2737 15.222 52.2477 15.373 52.2397 15.535C52.2307 15.735 52.2537 15.923 52.3037 16.103C52.3247 16.192 52.3527 16.277 52.3847 16.363L52.4017 16.395L55.6927 24.405C55.8987 24.9 56.2507 25.251 56.7477 25.458C57.2447 25.665 57.7417 25.665 58.2387 25.458C58.7337 25.253 59.0847 24.901 59.2927 24.405C59.4987 23.907 59.4987 23.409 59.2927 22.913L57.2987 18.065C64.7567 19.728 70.4697 24.547 74.4357 32.528Z" fill="#6D7BD3"/>
</svg>
